<?xml version="1.0" standalone="no"?>
<!DOCTYPE svg PUBLIC "-//W3C//DTD SVG 1.1//EN" "http://www.w3.org/Graphics/SVG/1.1/DTD/svg11.dtd" >
<svg xmlns="http://www.w3.org/2000/svg" xmlns:xlink="http://www.w3.org/1999/xlink" version="1.1">
<metadata>
Created by FontForge 20181014 at Tue Jul 13 01:13:58 2004
 By convertio
Copyright (c) Teknia Software, 2001. All rights reserved.
</metadata>
<defs>
<font id="TekniaGreek" horiz-adv-x="0" >
  <font-face 
    font-family="TekniaGreek"
    font-weight="400"
    font-stretch="normal"
    units-per-em="1000"
    panose-1="2 0 5 3 9 0 0 2 0 4"
    ascent="800"
    descent="-200"
    x-height="468"
    cap-height="694"
    bbox="-559 -255 855 917"
    underline-thickness="8"
    underline-position="-129"
    unicode-range="U+0020-FB02"
  />
<missing-glyph horiz-adv-x="409" 
 />
    <glyph glyph-name=".notdef" horiz-adv-x="409" 
 />
    <glyph glyph-name=".null" 
 />
    <glyph glyph-name="nonmarkingreturn" horiz-adv-x="409" 
 />
    <glyph glyph-name="space" unicode=" " horiz-adv-x="409" 
 />
    <glyph glyph-name="space" unicode="&#xa0;" horiz-adv-x="409" 
 />
    <glyph glyph-name="comma" unicode="," horiz-adv-x="244" 
d="M146 9q0 -24 -8.5 -45t-24 -38t-37 -29t-48.5 -18v11q15 4 30.5 13.5t27.5 22.5t19.5 29t7.5 32q0 11 -3 20q-16 -15 -33 -15q-9 0 -18 4t-15 10t-10 14.5t-4 17.5t4 17t10 14.5t15 10.5t18 4q69 0 69 -75z" />
    <glyph glyph-name="hyphen" unicode="-" horiz-adv-x="462" 
d="M380 240h-360l20 40h360z" />
    <glyph glyph-name="period" unicode="." horiz-adv-x="286" 
d="M157 36q0 -10 -4.5 -19t-11.5 -15.5t-17 -10.5t-20 -4t-19 4t-16 11t-11.5 16t-4.5 18q0 24 15 39.5t37 15.5q11 0 20.5 -4t16.5 -11.5t11 -17.5t4 -22z" />
    <glyph glyph-name="slash" unicode="/" 
d="M-232 -193q9 0 16.5 5t14.5 14l27 -28q-8 -11 -18.5 -21t-22 -17t-22 -11t-19.5 -4q-28 0 -39.5 19t-11.5 57v93h59v-84q0 -8 2.5 -15t11.5 -8h2z" />
    <glyph glyph-name="zero" unicode="0" horiz-adv-x="500" 
d="M465 377q0 -396 -222 -396q-214 0 -214 339q-2 372 232 371q204 -2 204 -314zM381 298q0 74 -3.5 127t-10.5 87q-28 142 -116 136q-98 6 -126 -115q-6 -28 -9 -76.5t-3 -120.5q0 -321 138 -321q33 0 57.5 16t40.5 50.5t24 88t8 128.5z" />
    <glyph glyph-name="one" unicode="1" horiz-adv-x="500" 
d="M418 -2q-40 1 -79 1h-80h-81t-82 -1v29q32 0 55 1.5t38 8t21.5 20.5t6.5 39v485q0 2 -1.5 10t-5.5 23q-65 -30 -100.5 -44.5t-42.5 -14.5l-7 43q66 24 123 47.5t104 48.5l14 -5v-593q0 -26 7 -40t21.5 -20.5t36.5 -7.5t52 -1v-29v0z" />
    <glyph glyph-name="two" unicode="2" horiz-adv-x="500" 
d="M468 -2q-58 1 -115 1h-114h-112q-55 0 -111 -1v25q65 64 127 129q51 54 88.5 99.5t61.5 84.5t36 72.5t12 62.5q0 30 -9.5 56t-27 44.5t-42.5 29.5t-55 11q-35 0 -59.5 -7.5t-39.5 -23.5q-9 -12 -19.5 -36t-20.5 -62h-29q3 23 7 56.5t10 79.5q61 70 170 70q47 0 85 -12.5
t64.5 -37t41 -59t14.5 -78.5q0 -57 -44.5 -131t-141.5 -171l-123 -123q31 0 117 2.5t229 7.5q-1 -11 -1.5 -22.5t-0.5 -22.5t0.5 -22t1.5 -22z" />
    <glyph glyph-name="three" unicode="3" horiz-adv-x="500" 
d="M462 220q0 -98 -95 -172q-87 -67 -189 -67q-28 0 -59.5 6t-68.5 19q-4 33 -12.5 69.5t-22.5 77.5l27 10q43 -142 180 -142q33 0 60.5 13.5t46.5 36.5t29.5 53t10.5 64q0 69 -34.5 107.5t-98.5 38.5q-18 0 -38.5 -5.5t-43.5 -16.5l-7 6l12 53q29 -3 44 -3q28 0 52.5 11.5
t42 30.5t28 44t10.5 52q0 23 -10 44.5t-26 37.5t-38 25t-47 9q-29 0 -50.5 -6.5t-38.5 -20.5t-29.5 -38t-22.5 -59h-31q20 106 51 143q41 48 140 48q41 0 74.5 -11t58 -30.5t38 -47.5t13.5 -63q0 -83 -110 -163q154 -21 154 -154z" />
    <glyph glyph-name="four" unicode="4" horiz-adv-x="500" 
d="M472 -2q-39 1 -79 1h-79h-78q-39 0 -78 -1v29h42q23 0 38.5 3.5t24.5 12.5t13 24.5t4 38.5v75h-267l-11 23l283 463l74 27l12 -5q-3 -22 -5 -51t-2 -65v-328h30q22 0 41.5 1t36.5 2v-71q-15 2 -37 3t-49 1h-22v-75q0 -58 28 -71q8 -4 80 -8v-29v0zM280 594h-2l-213 -349
h215v349z" />
    <glyph glyph-name="five" unicode="5" horiz-adv-x="500" 
d="M459 252q0 -111 -91 -193q-87 -78 -200 -78q-67 0 -106 23q-10 30 -22 63t-27 70l24 14q21 -39 36 -62.5t23 -31.5q34 -32 105 -32q41 0 73 12t54.5 35t34 55.5t11.5 72.5q0 39 -10.5 71.5t-30.5 56t-49.5 36.5t-65.5 13q-65 0 -123 -61l-20 6q9 78 9 179q0 35 -1 80.5
t-4 102.5l5 5q44 -2 87 -3t87 -1t87 1t87 3l5 -5q-1 -10 -1.5 -19.5t-0.5 -19.5t0.5 -20t1.5 -20l-5 -5q-70 0 -146 1.5t-159 3.5l-9 -209q78 50 140 50q45 0 82 -14t63.5 -39.5t41 -61.5t14.5 -79z" />
    <glyph glyph-name="six" unicode="6" horiz-adv-x="500" 
d="M468 218q0 -49 -17.5 -92t-47.5 -75.5t-71.5 -51t-89.5 -18.5q-49 0 -88 18.5t-66 53t-41.5 83.5t-14.5 110q0 79 25 150.5t70.5 130t109.5 100.5t142 62l37 -17v-8q-258 -73 -285 -333q30 24 51.5 39.5t39.5 24t34 11.5t36 3q41 0 73.5 -14t55.5 -39.5t35 -60.5t12 -77z
M382 185q0 37 -9 67t-26 51.5t-41 33.5t-55 12q-29 0 -52.5 -9t-40.5 -25.5t-26 -40t-9 -52.5q0 -209 131 -209q30 0 54 13t40 35.5t25 54.5t9 69z" />
    <glyph glyph-name="seven" unicode="7" horiz-adv-x="500" 
d="M342 388q-17 -32 -36.5 -70t-38.5 -77t-37 -77t-32.5 -70.5t-25.5 -57t-16 -36.5q-2 -1 -5 -1h-4q-8 0 -15.5 1t-19.5 1q-8 0 -20.5 -0.5t-26.5 -0.5l-9 10l172 273l52 86t49.5 84t44 79t35.5 71h-267q-47 0 -59 -44l-9 -82h-30q1 26 1.5 54.5t0.5 54.5v24
q0 18 -0.5 35.5t-1.5 38.5l10 5h2q4 0 22.5 -0.5t47 -2t65 -2t77.5 -0.5q39 0 71.5 0.5t59.5 1.5t51 1.5t47 1.5l-9 -27z" />
    <glyph glyph-name="eight" unicode="8" horiz-adv-x="500" 
d="M464 206q0 -46 -19.5 -87t-52 -71.5t-75 -48.5t-89.5 -18q-41 0 -77 13t-63 36.5t-42.5 57t-15.5 74.5q0 29 10.5 57.5t28.5 52.5t43.5 43t55.5 30q-57 35 -86 74t-29 85q0 39 15.5 73t43 59t65 39t82.5 14q36 0 66.5 -6t54.5 -25q10 -8 20 -18t17.5 -23t13 -31.5
t5.5 -42.5v-3q0 -40 -31 -80t-92 -79q18 -9 31 -15t24.5 -12t23 -14t26.5 -22q24 -21 35 -50.5t11 -61.5zM385 164q0 65 -63 108q-13 9 -42 24t-76 35q-103 -56 -103 -168q0 -34 10.5 -61.5t29.5 -47t46 -30t60 -10.5q28 0 53 12.5t44 33t30 47.5t11 57zM368 532
q0 27 -8.5 49.5t-24 39t-37.5 25.5t-49 9t-49.5 -8t-38.5 -23t-24.5 -36t-8.5 -48q0 -52 53 -91q24 -17 97 -53q90 54 90 136z" />
    <glyph glyph-name="nine" unicode="9" horiz-adv-x="500" 
d="M457 421q0 -83 -24.5 -153.5t-70.5 -127t-113 -97t-153 -62.5l-34 17v7q64 15 118 46t93.5 74.5t62 98t24.5 116.5q-89 -84 -155 -84q-41 0 -75.5 15t-59 42t-37.5 64t-13 80q0 48 17 90t47 73.5t71.5 50t89.5 18.5q49 0 88.5 -19.5t67 -54.5t42 -84.5t14.5 -109.5z
M370 466q0 43 -9 78t-25.5 59.5t-40.5 38.5t-54 14q-33 0 -58 -12t-42 -34t-26 -53.5t-9 -69.5q0 -36 9.5 -67t27.5 -54t43 -36t56 -13q29 0 52.5 12t40.5 32.5t26 47.5t9 57z" />
    <glyph glyph-name="colon" unicode=":" 
d="M-160 650q0 -9 -4 -9q-20 18 -37 33t-34.5 25.5t-37 16.5t-42.5 6q-40 0 -75 -20t-68 -62q-2 0 -3 4t-2 9q0 25 12 46.5t32.5 37t47 25t56.5 9.5t58 -10t49.5 -26t34.5 -38t13 -47z" />
    <glyph glyph-name="semicolon" unicode=";" 
d="M-370 792q-6 9 -6 19q0 4 1.5 9t5.5 9t9.5 7t13.5 3q10 0 18 -4.5t12 -13.5l68 -157q6 -15 6 -20q0 -3 -2 -5t-4 -2q-4 0 -9 4.5t-9 9.5l-104 141v0z" />
    <glyph glyph-name="less" unicode="&#x3c;" 
d="M-103 644q0 -9 -3.5 -17t-9 -13.5t-13 -9t-16.5 -3.5q-17 0 -30 12.5t-13 30.5q0 9 3.5 16.5t9.5 13t13.5 9t16.5 3.5t16.5 -3.5t13 -9t9 -13t3.5 -16.5zM-308 644q0 -9 -3.5 -17t-9 -13.5t-13 -9t-16.5 -3.5t-16.5 3.5t-13 9t-9 13.5t-3.5 17t3.5 16.5t9 13t13 9
t16.5 3.5t16.5 -3.5t13 -9t9 -13t3.5 -16.5zM-253 724q-5 -7 -9 -10.5t-8 -3.5q-7 0 -7 7q0 3 1.5 8t4.5 12l68 155q4 9 12.5 14.5t18.5 5.5q15 0 22 -9.5t7 -19.5t-6 -18z" />
    <glyph glyph-name="equal" unicode="=" horiz-adv-x="201" 
d="M133 750q0 -23 -9.5 -43t-24.5 -35t-35 -23t-41 -8q-20 0 -20 4q3 0 13 2.5t28 10.5q14 7 23.5 13t15.5 13.5t9 16t3 20.5q0 18 -11 32q-5 -2 -11 -4q-14 -5 -26 -5h-9q-14 2 -20 8l-8 8q-10 12 -10 29q0 12 4 21.5t12 16t18.5 10t21.5 3.5h2q15 0 28.5 -5t24 -16
t16.5 -27.5t6 -38.5v-3z" />
    <glyph glyph-name="greater" unicode="&#x3e;" 
d="M-96 653q0 -9 -3.5 -17t-9 -13.5t-13 -9t-16.5 -3.5q-17 0 -30 12.5t-13 30.5q0 9 3.5 16.5t9.5 13t13.5 9t16.5 3.5t16.5 -3.5t13 -9t9 -13t3.5 -16.5zM-301 653q0 -9 -3.5 -17t-9 -13.5t-13 -9t-16.5 -3.5t-16.5 3.5t-13 9t-9 13.5t-3.5 17t3.5 16.5t9 13t13 9
t16.5 3.5t16.5 -3.5t13 -9t9 -13t3.5 -16.5zM-373 869q-6 9 -6 19q0 4 1.5 9t5.5 9t9.5 7t13.5 3q10 0 18 -4.5t12 -13.5l68 -157q6 -15 6 -20q0 -3 -2 -5t-4 -2q-4 0 -9 4.5t-9 9.5l-104 141v0z" />
    <glyph glyph-name="question" unicode="?" 
d="M-111 794q0 -11 -4 -11l-20.5 20.5t-21.5 20.5q-23 20 -50.5 30t-58.5 10q-46 0 -80 -21q-8 -6 -19 -16t-21 -20t-16 -17t-7 -7q-4 0 -6 13q0 26 12 47.5t32.5 37t47.5 24.5t57 9q29 0 56.5 -9t49.5 -25.5t35.5 -38.5t13.5 -47zM-120 689q0 -9 -3 -16.5t-9 -13.5
t-13.5 -9.5t-16.5 -3.5q-8 0 -16 3.5t-14 9.5t-9.5 13.5t-3.5 16.5t3.5 16.5t9.5 13t14 9t16 3.5q9 0 16.5 -3.5t13.5 -9t9 -13t3 -16.5zM-325 689q0 -9 -3.5 -16.5t-9 -13.5t-13 -9.5t-16.5 -3.5q-8 0 -16 3.5t-13.5 9.5t-9 13.5t-3.5 16.5t3.5 16.5t9 13t13.5 9t16 3.5
q9 0 16.5 -3.5t13 -9t9 -13t3.5 -16.5z" />
    <glyph glyph-name="at" unicode="@" horiz-adv-x="375" 
d="M134 750q0 -23 -9.5 -43t-24.5 -35t-35 -23t-41 -8q-20 0 -20 4q3 0 13 2.5t28 10.5q14 7 23.5 13t15.5 13.5t9 16t3 20.5q0 18 -11 32q-5 -2 -11 -4q-14 -5 -26 -5h-9q-14 2 -20 8l-8 8q-10 12 -10 29q0 12 4 21.5t12 16t18.5 10t21.5 3.5h2q15 0 28.5 -5t24 -16
t16.5 -27.5t6 -38.5v-3zM177 792q-6 9 -6 19q0 4 1.5 9t5.5 9t9.5 7t13.5 3q10 0 18 -4.5t12 -13.5l68 -157q6 -15 6 -20q0 -3 -2 -5t-4 -2q-4 0 -9 4.5t-9 9.5l-104 141v0z" />
    <glyph glyph-name="A" unicode="A" horiz-adv-x="757" 
d="M452 0v18q66 2 66 41q-1 12 -6 33t-17 50q-8 21 -17.5 41.5t-18.5 41.5h-253q-61 -143 -61 -165q0 -38 75 -42v-18h-206v18q24 4 41.5 14t29.5 26q7 8 16 27t21 49l229 560h17l230 -566q11 -28 20 -46.5t18 -28.5q28 -33 74 -35v-18h-258zM334 534l-114 -272h226z" />
    <glyph glyph-name="B" unicode="B" horiz-adv-x="649" 
d="M563 190q0 -41 -17 -75.5t-45.5 -60t-66 -39.5t-79.5 -14h-350v20h4q43 0 64.5 15t21.5 44v526q0 34 -18 50t-63 16h-8v19q10 0 26.5 0.5t36 1.5t41 2.5t41 2.5t36 1.5t25.5 0.5q324 0 324 -188q0 -109 -126 -150q43 -14 72 -31t47 -37.5t26 -46t8 -57.5zM463 184
q0 33 -13 61t-35.5 48t-53 31.5t-66.5 11.5h-97v-282q0 -17 38 -17q227 0 227 147zM445 516q0 32 -14 57t-40.5 41.5t-64 25.5t-85.5 9q-44 0 -44 -16q0 -12 1.5 -54.5t1.5 -115.5q0 -24 -0.5 -45t-1.5 -38h95q35 0 62.5 9.5t47.5 27.5t31 43t11 56z" />
    <glyph glyph-name="C" unicode="C" horiz-adv-x="767" 
d="M418 1v16h7q70 0 70 30q0 13 -150 252q-25 -32 -49.5 -63.5t-49.5 -63.5q-40 -52 -59.5 -82.5t-19.5 -38.5q0 -15 18 -24.5t47 -9.5v-16h-232v16q43 2 99.5 51t131.5 154q22 31 43 61t43 60q-34 49 -64.5 98.5t-64.5 97.5q-49 70 -91 104t-71 34v19h302v-20h-7
q-72 0 -72 -28q0 -2 11 -22.5t29.5 -51.5t42.5 -69.5t50 -77.5q158 202 158 222q0 27 -53 27h-8h-10v19h232v-19q-11 -1 -26.5 -4t-37.5 -9q-10 -5 -38.5 -36t-74.5 -91q-29 -37 -57 -74.5t-57 -74.5q35 -53 67 -106t67 -105q54 -80 94 -119.5t64 -39.5h16v-16h-300z" />
    <glyph glyph-name="D" unicode="D" horiz-adv-x="647" 
d="M-2 0q49 115 127.5 287.5t186.5 403.5l277 -691h-591zM276 519l-214 -471h405z" />
    <glyph glyph-name="E" unicode="E" horiz-adv-x="611" 
d="M546 0h-536v19q89 0 89 64v530q0 65 -90 65v18h529v-134h-27q-14 53 -24 63q-8 10 -24 15t-39 6q-64 3 -114 5.5t-85 2.5q-14 0 -21 -15v-90q0 -63 -1 -164h165q91 0 91 96h23v-236h-23v3q0 94 -91 94h-164v-270q0 -14 8.5 -21.5t32.5 -7.5q7 0 15 -0.5t22 -0.5h35.5
h56.5q38 0 66 5.5t49 18.5t37 34.5t29 53.5h31v-2z" />
    <glyph glyph-name="F" unicode="F" horiz-adv-x="783" 
d="M713 332q0 -51 -21.5 -91.5t-60.5 -69t-95 -44t-125 -16.5v-3q0 -89 100 -89v-19h-304v19q50 0 76 20.5t26 63.5l-1 8q-72 1 -129 16.5t-96.5 45t-60.5 72t-21 96.5q0 241 308 242q-1 93 -94 93h-7v18h303v-19q-53 0 -76.5 -21t-23.5 -67v-5q302 0 302 -250zM309 550
q-40 0 -78 -15t-67 -41.5t-47 -61.5t-18 -74q0 -46 14.5 -84.5t42 -66.5t65 -43.5t84.5 -15.5h4v402zM618 358q0 39 -17.5 74t-46 61t-65.5 41.5t-78 15.5v-403q45 0 83 15.5t65.5 43t43 66.5t15.5 86z" />
    <glyph glyph-name="G" unicode="G" horiz-adv-x="594" 
d="M558 530q-18 122 -184 123q-1 -1 -29 -2t-83 -3q-54 -2 -56 -13v-553q0 -61 87 -63l-1 -19h-281v18q45 0 68 16.5t23 49.5v493q0 96 -100 96v21h568l13 -164h-25z" />
    <glyph glyph-name="H" unicode="H" horiz-adv-x="760" 
d="M412 0v18q26 0 43 3.5t27 11.5t14.5 20t4.5 30v248h-299v-254q0 -57 90 -59v-18h-283v18q28 2 45.5 5.5t27 11t13 18t3.5 26.5v533q0 64 -89 64v18h283v-19q-25 0 -42.5 -3.5t-28 -11t-15 -20t-4.5 -30.5v-236h298v237q0 14 -4.5 26t-15 20.5t-27 13t-41.5 4.5v19h280
v-20q-88 0 -88 -58v-538q0 -61 89 -61v-17h-281z" />
    <glyph glyph-name="I" unicode="I" horiz-adv-x="361" 
d="M293 675q-89 0 -89 -59v-543q0 -54 89 -54v-19h-282v19q91 0 91 54v543q0 35 -22.5 47.5t-67.5 12.5v18h281v-19v0z" />
    <glyph glyph-name="J" unicode="J" 
d="M-358 751q0 16 5.5 31t15.5 27.5t24.5 20.5t31.5 8h2q22 0 37.5 -12t16.5 -39v-2q0 -20 -13.5 -31.5t-33.5 -11.5t-36 9q-10 -13 -10 -26q0 -24 11.5 -41t38.5 -28q37 -13 41 -13h1q0 -4 -21 -4q-24 0 -44.5 8t-35 22.5t-23 35t-8.5 45.5v1z" />
    <glyph glyph-name="K" unicode="K" horiz-adv-x="730" 
d="M396 0v23h7q35 0 52 6.5t17 21.5q0 9 -26 43.5t-78 93.5q-32 36 -64.5 71.5t-64.5 72.5l-34 -31v-223q0 -29 17 -42t60 -13h10v-23h-283v23q44 0 63 8q13 7 21.5 19.5t8.5 32.5v531q0 60 -89 60v19h284v-20q-46 0 -68 -17t-22 -50v-239q36 31 72.5 64t74.5 69
q114 109 114 137q0 16 -19.5 25t-65.5 10v22h259v-23q-16 -1 -32.5 -7t-36 -19.5t-42 -33.5t-49.5 -48q-40 -40 -80.5 -84t-79.5 -85l218 -272q28 -36 47.5 -55t36 -28.5t31 -12t33.5 -3.5h8v-23h-300z" />
    <glyph glyph-name="L" unicode="L" horiz-adv-x="715" 
d="M399 0v17q70 0 70 48q0 21 -167 435q-77 -210 -116 -320.5t-39 -121.5q0 -12 5 -19t13.5 -11.5t20.5 -6.5t27 -3v-18h-212v18q44 4 82 39q5 5 24 50t50.5 126.5t74.5 197.5t96 264q36 -87 70 -172.5t69 -172.5q57 -142 91 -217.5t43 -83.5q33 -30 66 -32v-17h-268z" />
    <glyph glyph-name="M" unicode="M" horiz-adv-x="922" 
d="M574 0v19q89 0 89 59v511l-243 -589h-18l-260 561v-478q0 -64 90 -64v-19h-228v18q89 0 89 59v538q0 41 -28 52q-4 1 -60 9l-1 18h198l233 -528l222 527h195v-17q-25 0 -42 -3t-26.5 -9t-13.5 -16t-4 -25v-545q0 -59 88 -59l1 -19h-281z" />
    <glyph glyph-name="N" unicode="N" horiz-adv-x="689" 
d="M679 676q-76 0 -76 -53v-623h-23l-436 560v-480q0 -59 89 -61v-19h-227v19q89 4 89 61v544q-8 17 -17 27.5t-19 16.5t-19.5 8t-19.5 2h-12v18h166l378 -509v436q0 54 -82 54h-6v18h226v-19h-11z" />
    <glyph glyph-name="O" unicode="O" horiz-adv-x="737" 
d="M661 338q0 -50 -11.5 -95t-33 -82.5t-52.5 -68t-69 -51.5t-83 -32.5t-95 -11.5q-146 0 -233 114q-41 52 -60 116t-19 139q0 45 11.5 87.5t33 79t51.5 67t66.5 52.5t78.5 34t87 12q48 0 91.5 -12t80 -35t65.5 -55t49 -72t31 -87t11 -99zM548 320q0 80 -13.5 143
t-40.5 106.5t-67 66t-93 22.5t-93 -23t-67.5 -66.5t-41 -106.5t-13.5 -143q0 -60 15 -112t43 -90t67.5 -60t89.5 -22q49 0 88.5 21t67.5 59t43 90t15 115z" />
    <glyph glyph-name="P" unicode="P" horiz-adv-x="791" 
d="M731 0h-283l-1 20q26 0 43.5 3.5t28 11.5t15 20.5t4.5 29.5v556h-333v-554q0 -18 4.5 -31t15 -21t28 -11.5t43.5 -3.5v-20h-283v21q25 0 41.5 3.5t27 11t15 20t4.5 30.5v518q0 34 -24 53t-63 19v18h715v-18q-87 -8 -87 -74v-517q0 -18 4.5 -30.5t15 -20.5t28 -11.5
t42.5 -3.5z" />
    <glyph glyph-name="Q" unicode="Q" horiz-adv-x="733" 
d="M656 327q-1 -68 -23.5 -126.5t-70.5 -107.5t-105.5 -73.5t-124.5 -24.5q-77 0 -137.5 26.5t-106.5 82.5q-84 102 -84 258q0 74 26 136t71.5 107t108 70t135.5 25q46 0 86.5 -12.5t75 -36.5t62 -57t47 -74.5t30 -90t10.5 -102.5zM544 321q0 80 -13.5 143.5t-40.5 107
t-66.5 66t-92.5 22.5q-51 0 -91 -22.5t-67.5 -64.5t-42 -101.5t-14.5 -132.5q0 -69 14 -125.5t41 -96t67 -61.5t92 -22q50 0 89.5 21.5t67.5 59.5t42.5 90.5t14.5 115.5zM457 265q-17 52 -66 52h-125q-48 0 -61 -53h-15q2 31 3.5 53.5t1.5 36.5q0 11 -1.5 32.5t-3.5 50.5h15
q2 -10 7.5 -19.5t13 -17t17.5 -12t19 -4.5h128q14 0 24.5 3.5t18.5 10.5q3 2 8.5 12t15.5 27h14q-2 -25 -3 -45t-1 -36q0 -21 1 -43.5t3 -47.5h-14z" />
    <glyph glyph-name="R" unicode="R" horiz-adv-x="577" 
d="M542 492q0 -185 -279 -185h-30t-34 1v-222q0 -34 17.5 -49t61.5 -15h11v-22h-284v21q25 0 42 3.5t27.5 11t15 21t4.5 32.5v530q0 60 -86 60h-4v18h303q235 0 235 -205zM434 493q0 45 -10 76t-31 50.5t-54.5 28.5t-79.5 9q-60 0 -60 -27v-269q16 -19 46 -19q54 0 90.5 8
t58.5 26t31 47t9 70z" />
    <glyph glyph-name="S" unicode="S" horiz-adv-x="612" 
d="M544 1h-544q33 43 280 337q-59 78 -124.5 166.5t-139.5 189.5h512l10 -156h-19q-27 108 -116 108h-228l200 -265l-236 -283h307q22 0 38.5 6t30 19.5t24.5 35t22 52.5h20v-2z" />
    <glyph glyph-name="T" unicode="T" horiz-adv-x="614" 
d="M552 518q-6 90 -66 117q-34 15 -142 18v-574q0 -29 19.5 -44t62.5 -15h8v-20h-286v20h11q45 0 63.5 14.5t18.5 47.5v573q-55 -3 -91.5 -7t-53.5 -11q-67 -28 -67 -119h-21v174h572v-174h-28z" />
    <glyph glyph-name="U" unicode="U" horiz-adv-x="708" 
d="M695 612q0 -12 -4.5 -23t-12 -19.5t-17.5 -13.5t-22 -5q-9 0 -17 3.5t-14 9t-10 13t-4 16.5q0 4 12 40q-4 7 -14 7q-50 0 -124 -125q-71 -119 -71 -175v-259q0 -63 84 -63h4v-18h-278v18q26 0 44.5 4.5t29.5 15.5t16 28.5t5 43.5v221q0 88 -15 149.5t-43 97.5
q-33 42 -94.5 65.5t-150.5 28.5q52 18 147 18q50 0 91.5 -15t73 -44t52 -71.5t29.5 -96.5q28 79 87 145q70 80 141 80q15 0 28.5 -6.5t24 -17t16.5 -24t6 -28.5z" />
    <glyph glyph-name="V" unicode="V" horiz-adv-x="411" 
d="M373 -49q0 -33 -12 -58.5t-33.5 -43.5t-52 -27.5t-67.5 -9.5q-58 0 -58 38q0 36 63 36q5 0 14.5 -2t20 -5t19.5 -5t14 -2q11 0 21 6t17 16t11.5 22t4.5 23q0 15 -6 27t-16.5 19.5t-25 11.5t-30.5 4q-5 0 -19.5 -1t-32 -2t-34 -2t-25.5 -1q-30 0 -55 17t-43.5 45.5
t-28.5 65t-10 74.5q0 64 17.5 115.5t50 87.5t78.5 55.5t102 19.5q102 0 102 -49q0 -37 -59 -37q-8 0 -23.5 1.5t-32.5 3t-33 3t-24 1.5q-31 0 -57 -15.5t-45 -41.5t-29.5 -59t-10.5 -68q0 -37 9 -62.5t29 -41.5t52.5 -23.5t80.5 -7.5h62q20 0 37.5 -10t30.5 -28t20 -41
t7 -49z" />
    <glyph glyph-name="W" unicode="W" horiz-adv-x="752" 
d="M397 0l16 149q66 30 101 94t35 153q0 265 -210 265q-203 0 -203 -266q0 -43 9 -81.5t26.5 -70t43.5 -55.5t59 -39l16 -149h-286v160h14q16 -60 96 -60h132l-2 27q-62 31 -102 57t-61 50q-58 65 -58 188q0 122 102 201q91 70 218 70q133 0 223 -75q97 -79 97 -210
q0 -51 -14 -95.5t-41 -80.5t-66 -63t-88 -43l-2 -27h162q41 0 53 60h15v-159h-285z" />
    <glyph glyph-name="X" unicode="X" horiz-adv-x="626" 
d="M2 1v203h19q9 -59 16 -73q16 -32 63 -32h373q18 0 30.5 5.5t20.5 17.5t13 32t8 49h18v-202h-561zM526 535q-10 64 -60 64h-363q-15 0 -25.5 -3.5t-18 -11t-12 -19.5t-7.5 -30h-16v158h518v-158h-16zM438 251q-1 59 -44 59h-221q-44 0 -45 -58h-18q2 58 3 86.5l1 28.5
l-1 25t-3 76h17q4 -19 6.5 -29t3.5 -12q9 -18 36 -18h220q44 0 45 58h19q-3 -55 -4 -81.5l-1 -26.5l1 -27.5t4 -80.5h-19z" />
    <glyph glyph-name="Y" unicode="Y" horiz-adv-x="740" 
d="M748 674q-25 -7 -37 -34.5t-13 -76.5q-1 -61 -9.5 -102.5t-22.5 -62.5q-56 -84 -238 -84v-238q0 -56 87 -56v-18h-276v19q26 1 43.5 4.5t27 11.5t13.5 20t4 29v228q-72 0 -122.5 10t-81.5 33t-45 59t-14 87v61q0 44 -15.5 71.5t-44.5 37.5v18q119 0 147 -87l28 -162
q29 -87 148 -87v257q0 32 -15.5 43.5t-48.5 11.5h-23v18h275v-19h-15q-21 0 -35 -3t-22 -9.5t-11 -17t-3 -24.5v-258q61 1 97.5 23.5t49.5 67.5q6 41 12 81l12 80q25 87 148 87v-19v0z" />
    <glyph glyph-name="Z" unicode="Z" horiz-adv-x="635" 
d="M568 1h-566v21l426 628h-246q-64 0 -94 -39q-20 -26 -39 -97h-25l15 180h521v-28q-31 -50 -133.5 -205.5t-275.5 -415.5h266q30 0 52.5 7.5t39.5 24t30.5 44t24.5 67.5h29z" />
    <glyph glyph-name="bracketleft" unicode="[" 
d="M-297 750q0 -23 -9.5 -43t-24.5 -35t-35 -23t-41 -8q-20 0 -20 4q3 0 13 2.5t28 10.5q14 7 23.5 13t15.5 13.5t9 16t3 20.5q0 18 -11 32q-5 -2 -11 -4q-14 -5 -26 -5h-9q-14 2 -20 8l-8 8q-10 12 -10 29q0 12 4 21.5t12 16t18.5 10t21.5 3.5h2q15 0 28.5 -5t24 -16
t16.5 -27.5t6 -38.5v-3zM-215 652q-5 -7 -9 -10.5t-8 -3.5q-7 0 -7 7q0 3 1.5 8t4.5 12l68 155q4 9 12.5 14.5t18.5 5.5q15 0 22 -9.5t7 -19.5t-6 -18z" />
    <glyph glyph-name="backslash" unicode="\" 
d="M-246 701q0 -23 -9.5 -43t-24.5 -35t-35 -23t-41 -8q-20 0 -20 4q3 0 13 2.5t28 10.5q14 7 23.5 13t15.5 13.5t9 16t3 20.5q0 18 -11 32q-5 -2 -11 -4q-14 -5 -26 -5h-9q-14 2 -20 8l-8 8q-10 12 -10 29q0 12 4 21.5t12 16t18.5 10t21.5 3.5h2q15 0 28.5 -5t24 -16
t16.5 -27.5t6 -38.5v-3zM-158 795q0 -9 -4 -9q-20 18 -37 33t-34.5 25.5t-37 16.5t-42.5 6q-40 0 -75 -20t-68 -62q-2 0 -3 4t-2 9q0 25 12 46.5t32.5 37t47 25t56.5 9.5t58 -10t49.5 -26t34.5 -38t13 -47z" />
    <glyph glyph-name="bracketright" unicode="]" 
d="M-319 750q0 -23 -9.5 -43t-24.5 -35t-35 -23t-41 -8q-20 0 -20 4q3 0 13 2.5t28 10.5q14 7 23.5 13t15.5 13.5t9 16t3 20.5q0 18 -11 32q-5 -2 -11 -4q-14 -5 -26 -5h-9q-14 2 -20 8l-8 8q-10 12 -10 29q0 12 4 21.5t12 16t18.5 10t21.5 3.5h2q15 0 28.5 -5t24 -16
t16.5 -27.5t6 -38.5v-3zM-250 792q-6 9 -6 19q0 4 1.5 9t5.5 9t9.5 7t13.5 3q10 0 18 -4.5t12 -13.5l68 -157q6 -15 6 -20q0 -3 -2 -5t-4 -2q-4 0 -9 4.5t-9 9.5l-104 141v0z" />
    <glyph glyph-name="asciicircum" unicode="^" horiz-adv-x="387" 
d="M314 793q0 -9 -4 -9q-20 18 -37 33t-34.5 25.5t-37 16.5t-42.5 6q-40 0 -75 -20t-68 -62q-2 0 -3 4t-2 9q0 25 12 46.5t32.5 37t47 25t56.5 9.5t58 -10t49.5 -26t34.5 -38t13 -47zM74 706q0 16 5.5 31t15.5 27.5t24.5 20.5t31.5 8h2q22 0 37.5 -12t16.5 -39v-2
q0 -20 -13.5 -31.5t-33.5 -11.5t-36 9q-10 -13 -10 -26q0 -24 11.5 -41t38.5 -28q37 -13 41 -13h1q0 -4 -21 -4q-24 0 -44.5 8t-35 22.5t-23 35t-8.5 45.5v1z" />
    <glyph glyph-name="underscore" unicode="_" horiz-adv-x="500" 
d="M0 -69v32h500v-32h-500z" />
    <glyph glyph-name="grave" unicode="`" horiz-adv-x="252" 
d="M180 388q0 -12 -4.5 -22t-12 -17.5t-17.5 -12t-21 -4.5q-12 0 -22 4.5t-17.5 12t-12 17.5t-4.5 22q0 11 4.5 21t12 17.5t17.5 12t22 4.5q11 0 21 -4.5t17.5 -12t12 -17.5t4.5 -21z" />
    <glyph glyph-name="a" unicode="a" horiz-adv-x="577" 
d="M521 128q-1 -138 -65 -138q-12 0 -22.5 5.5t-20.5 20t-21 39t-25 61.5q-50 -74 -75 -95q-42 -34 -112 -34q-45 0 -79.5 16.5t-57 48t-34.5 76t-12 100.5q0 53 14 97.5t40 77t62.5 50t81.5 17.5q31 0 57 -13t46 -36.5t33.5 -55.5t19.5 -71l1 -1l57 170h79
q-103 -307 -103 -311q0 -10 7 -27t17 -32t22.5 -26.5t23.5 -11.5q10 0 19 6.5t16 17t10.5 23.5t3.5 27l17 -1v0zM317 209q-1 47 -10 88t-25.5 71.5t-40 48t-52.5 17.5q-23 0 -42 -16t-31.5 -46t-19 -71t-6.5 -92q0 -44 7 -79t20.5 -60t33.5 -38.5t46 -13.5q37 0 81 77
q39 71 39 114z" />
    <glyph glyph-name="b" unicode="b" horiz-adv-x="460" 
d="M398 187q-1 -45 -13.5 -82.5t-35.5 -63.5t-55.5 -40.5t-73.5 -14.5q-78 0 -156 59q-3 -72 -6.5 -129t-7.5 -99h-50q1 38 2.5 78t2 82.5t1 89t0.5 99.5q0 66 -0.5 128.5t-1 113t-0.5 86.5v50q0 28 14.5 53.5t38.5 44t54 29.5t61 11h3q41 0 75.5 -11t59.5 -31t39.5 -48
t14.5 -61q0 -20 -7.5 -44t-20 -47.5t-28.5 -44t-34 -34.5q124 -56 124 -174zM306 172q0 25 -7.5 54t-20 53t-28.5 40t-35 16q-4 0 -10 -1.5t-13.5 -3.5t-15 -3.5t-14.5 -1.5q-10 0 -17.5 3.5t-13.5 8.5t-9 11t-3 13q0 8 4 14t10.5 10t14 6t13.5 2q16 0 29 -4t20 -4
q15 0 27 14t21.5 35.5t14.5 47t5 48.5q0 22 -10 43.5t-25.5 38.5t-36 27.5t-41.5 10.5q-19 0 -35 -9t-29 -23.5t-21 -33t-9 -36.5v-459q44 -59 128 -59q25 0 45 9.5t34 28t21 45t7 59.5z" />
    <glyph glyph-name="c" unicode="c" horiz-adv-x="459" 
d="M461 -32q-1 -31 -8 -59t-20 -49t-32.5 -33.5t-43.5 -12.5q-31 0 -54.5 25.5t-40.5 76.5q-6 17 -14 55.5t-19 97.5q-4 -5 -15 -24t-24.5 -44.5t-28.5 -54.5t-27.5 -54t-22 -42.5t-11.5 -21.5h-92q30 60 77.5 149t113.5 211q-25 118 -30 131q-29 86 -81 86q-15 0 -27 -7.5
t-21 -20t-15 -29t-9 -35.5h-16q22 166 96 166q40 0 66.5 -37t43.5 -112q5 -23 9 -47t9 -47l130 232h92l-194 -354q13 -55 21 -88t13 -46q31 -94 78 -94q15 0 29 7t24.5 18.5t17.5 27t9 32.5h17v-3v0z" />
    <glyph glyph-name="d" unicode="d" horiz-adv-x="481" 
d="M399 197q0 -45 -18.5 -84t-49.5 -67.5t-71.5 -45t-84.5 -16.5q-36 0 -68 18t-55.5 47t-37.5 66t-14 74q0 38 10 69t33 56.5t60 47.5t91 42q-26 25 -51.5 47.5t-45.5 45t-32.5 45.5t-12.5 48q0 19 10 34.5t28 27t43 17.5t54 6q36 0 68 -7t56.5 -19.5t39 -30t14.5 -38.5
q0 -18 -15 -26.5t-29 -8.5q-27 0 -70 46t-89 46q-29 0 -49.5 -15t-20.5 -36q0 -42 79 -88q58 -34 95 -60t54 -43q79 -79 79 -198zM313 182q0 121 -91 194q-63 -4 -94 -54t-31 -131q0 -34 8.5 -64t23.5 -52.5t35 -35.5t44 -13t43.5 12t33 33t21 49.5t7.5 61.5z" />
    <glyph glyph-name="e" unicode="e" horiz-adv-x="397" 
d="M356 104q-2 -25 -19 -46.5t-42 -36.5t-56 -23.5t-61 -8.5q-87 0 -136.5 38t-49.5 107q0 19 8 36t21.5 30.5t31 23t37.5 13.5q-86 35 -86 107q0 29 15 53t40.5 40.5t58.5 25.5t69 9q30 0 56.5 -4.5t46 -14t31 -23.5t11.5 -33q0 -17 -12.5 -30t-29.5 -13q-25 0 -39 24
q-7 14 -13.5 25t-15 18.5t-20.5 12t-30 4.5q-38 0 -62.5 -28t-24.5 -69q0 -21 3 -36.5t12 -25.5t26 -15t44 -5q8 0 20.5 4.5t32.5 4.5q22 0 29.5 -10t7.5 -21q0 -13 -8 -21t-29 -8q-17 0 -29 4.5t-24 4.5q-85 0 -85 -90q0 -46 35 -71.5t95 -25.5q33 0 66 22.5t52 57.5l23 -6
v0z" />
    <glyph glyph-name="f" unicode="f" horiz-adv-x="499" 
d="M431 229q0 -51 -11.5 -91t-35.5 -69.5t-60.5 -49t-86.5 -31.5v-150l-38 -14v163q-52 13 -89.5 34t-61.5 52t-35.5 72t-11.5 95q0 43 15 83.5t41 72.5t61 53.5t76 25.5v144l41 19v-165q196 -47 196 -244zM349 223q0 34 -8 68t-23.5 64t-36 53t-45.5 34v-419
q24 0 44.5 14.5t36 40.5t24 63t8.5 82zM194 442q-29 -9 -50 -25t-33.5 -41.5t-18.5 -60.5t-6 -82q0 -13 2.5 -32.5t8.5 -42t14.5 -45.5t20.5 -42t27.5 -32.5t34.5 -15.5v419z" />
    <glyph glyph-name="g" unicode="g" horiz-adv-x="477" 
d="M251 13q0 -19 1.5 -34.5t1.5 -30.5q0 -22 -3.5 -44t-10.5 -39t-16.5 -28t-21.5 -11q-7 0 -11 3.5t-7 9.5t-4 13.5t-1 16.5q0 16 2.5 32.5t6.5 34t10.5 36.5t14.5 42q-13 92 -21 145.5t-12 70.5q-19 82 -43 123t-55 41q-16 0 -28 -3.5t-19.5 -12.5t-12 -23.5t-7.5 -36.5
h-15v13q0 40 5 67t16 43.5t28 24t41 7.5q46 0 79 -59t53 -180q6 -34 10.5 -67t9.5 -66h2l110 356h97z" />
    <glyph glyph-name="h" unicode="h" horiz-adv-x="520" 
d="M390 -147q-16 67 -23 118.5t-7 96.5v254q0 87 -78 87q-57 0 -102 -70v-339h-74v335q0 17 -3.5 31.5t-9.5 25.5t-14.5 17.5t-18.5 6.5q-41 0 -43 -67h-16q0 26 6.5 47t19 36t31 23.5t42.5 8.5q17 0 29.5 -4.5t22 -15t17 -27.5t13.5 -41q20 28 36.5 46t33.5 28.5t34.5 15
t38.5 4.5q31 0 52 -10.5t34 -34.5t19 -63.5t6 -96.5q0 -8 0.5 -18.5t0.5 -30.5v-50v-80q0 -83 6.5 -140.5t19.5 -92.5h-73z" />
    <glyph glyph-name="i" unicode="i" horiz-adv-x="338" 
d="M274 98q-6 -30 -14.5 -51t-20 -34t-27.5 -18.5t-37 -5.5q-47 0 -72 31t-25 93v167q0 62 -17.5 92t-58.5 30v19q2 0 4 0.5t5 1.5q28 8 44 13t32.5 10.5l30 10t24 8.5t14.5 5h1v-352q0 -15 3.5 -30.5t10 -27.5t15 -19.5t18.5 -7.5q43 0 53 65h17v0z" />
    <glyph glyph-name="j" unicode="j" 
d="M-206 750q0 -23 -9.5 -43t-24.5 -35t-35 -23t-41 -8q-20 0 -20 4q3 0 13 2.5t28 10.5q14 7 23.5 13t15.5 13.5t9 16t3 20.5q0 18 -11 32q-5 -2 -11 -4q-14 -5 -26 -5h-9q-14 2 -20 8l-8 8q-10 12 -10 29q0 12 4 21.5t12 16t18.5 10t21.5 3.5h2q15 0 28.5 -5t24 -16
t16.5 -27.5t6 -38.5v-3z" />
    <glyph glyph-name="k" unicode="k" horiz-adv-x="549" 
d="M276 0v18h7q35 0 35 17q-1 4 -19 28.5t-55 68.5q-22 27 -45 53.5t-46 52.5v-238h-71v342q0 66 -77 66h-3v22q7 1 14 1.5t14 2.5q74 22 122 39h2v-208q96 97 127 124q96 83 146 83q13 0 25.5 -3.5t22 -10t15.5 -16t6 -21.5q0 -11 -4 -20t-11.5 -16t-17 -11t-20.5 -4
q-8 0 -18 5t-20 11t-19 11t-13 5q-12 -1 -31 -12t-44 -36q-18 -17 -34.5 -35t-33.5 -35q31 -39 60 -79t60 -79q45 -55 83 -81.5t64 -26.5v-18h-221z" />
    <glyph glyph-name="l" unicode="l" horiz-adv-x="513" 
d="M460 147q0 -36 -6.5 -65t-19 -49t-30.5 -31t-42 -11q-25 0 -46.5 23t-39 67t-30 107.5t-19.5 144.5h-2l-156 -333h-66l195 442q-4 19 -8.5 37t-8.5 32.5t-7 25t-4 14.5q-25 58 -67 58q-59 0 -78 -86h-18q0 31 7 59t19 50t28.5 35t35.5 13q40 0 73 -39t53 -119
q18 -73 33 -146t31 -147q35 -157 94 -157q54 0 62 75h17v0z" />
    <glyph glyph-name="m" unicode="m" horiz-adv-x="507" 
d="M469 97q0 -22 -8 -41.5t-22 -33.5t-33.5 -22.5t-41.5 -8.5q-18 0 -30.5 3t-21.5 12.5t-16 26.5t-14 45q-68 -87 -150 -87q-32 0 -80 42v-32q0 -9 4 -26.5t8 -36.5t8 -36.5t4 -26.5q0 -64 -37 -64q-35 0 -35 65q0 8 2.5 25.5t5.5 36.5t5.5 36t2.5 26v470h76v-321
q0 -20 5.5 -37.5t16.5 -31t27 -21t36 -7.5q14 0 28.5 5.5t27.5 15t24.5 22t19.5 27.5v348h76v-365q0 -13 3 -25t8.5 -21.5t13.5 -15.5t17 -6q43 0 52 60h18v0z" />
    <glyph glyph-name="n" unicode="n" horiz-adv-x="479" 
d="M434 413q0 -22 -20 -72t-60 -131q-49 -99 -75 -149.5t-29 -60.5h-35q-11 29 -23 64t-25 71.5t-27 74t-27.5 72t-27 65.5t-26.5 55q-5 10 -12 15t-15 7.5t-16 3.5t-16 1l1 17q71 1 115 29l143 -371q47 88 71 141.5t24 74.5q0 7 -2.5 20.5t-5.5 29t-5.5 29.5t-2.5 20
q0 21 12.5 35t33.5 14q11 0 20 -4.5t16 -11.5t10.5 -17t3.5 -22z" />
    <glyph glyph-name="o" unicode="o" horiz-adv-x="497" 
d="M421 230q0 -94 -58 -165q-62 -75 -153 -75q-47 0 -86 19t-66.5 52.5t-42.5 80t-15 100.5q0 45 16.5 86.5t45 74t66 51.5t78.5 19q44 0 83.5 -19t68.5 -52.5t46 -77.5t17 -94zM334 216q-1 40 -7 76.5t-20 68.5q-37 85 -107 85q-26 0 -47 -13.5t-36 -37.5t-23.5 -58
t-8.5 -74q0 -51 10 -94.5t28.5 -75t44.5 -49.5t58 -18q25 0 45 13t34 38t21.5 60t7.5 79z" />
    <glyph glyph-name="p" unicode="p" horiz-adv-x="542" 
d="M474 134q0 -28 -8 -53.5t-23 -45.5t-34.5 -32.5t-42.5 -12.5q-88 0 -88 176q0 10 1.5 28t3.5 40t4.5 45.5t4.5 45t3.5 39t1.5 27.5h-103q-8 -99 -14 -158t-8 -73q-14 -87 -35.5 -127.5t-49.5 -40.5q-18 0 -31.5 13t-13.5 33q0 22 23 50q18 20 26.5 31t9.5 14q4 8 9.5 38
t13.5 83q6 47 9.5 82.5t3.5 54.5h-48q-10 0 -18 -2t-15.5 -8t-16.5 -17.5t-23 -31.5h-16v2q0 40 41 89q21 25 42 35.5t41 10.5h343l-10 -78h-103q-7 -51 -10 -108t-3 -115q0 -99 54 -99q48 0 60 76h19v-11z" />
    <glyph glyph-name="q" unicode="q" horiz-adv-x="508" 
d="M427 325q0 -75 -14.5 -137t-41.5 -107t-65 -70t-87 -25q-51 0 -90 24.5t-65.5 72.5t-40 118t-13.5 162q0 106 51 200q61 112 157 112q109 0 165 -128q22 -49 33 -104t11 -118zM332 380q0 39 -6.5 75.5t-13.5 69.5q-29 117 -94 117q-33 0 -55.5 -29t-37.5 -87
q-10 -40 -15.5 -81.5t-5.5 -88.5h228v24zM105 306q0 -65 8.5 -117.5t23.5 -89.5t36 -57t46 -20q49 0 77 71.5t35 212.5h-226z" />
    <glyph glyph-name="r" unicode="r" horiz-adv-x="481" 
d="M401 245q-1 -47 -13.5 -89.5t-40.5 -82.5q-60 -86 -148 -86q-41 0 -73 14t-51 41q-2 -10 -2.5 -20.5t-0.5 -20.5v-108q0 -20 -2 -39.5t-7 -36.5h-61q0 10 1.5 21.5t3 22.5t3 21t1.5 17v381q0 32 15.5 66t40.5 62.5t57 46.5t64 18q50 0 89 -16t67 -46t42.5 -72t14.5 -94z
M325 214q0 44 -12 82t-34 66t-52.5 43.5t-68.5 15.5q-17 0 -32 -10t-26 -24t-17.5 -30t-6.5 -29v-224q0 -16 10.5 -29.5t26.5 -24.5t35.5 -17t39.5 -6q31 0 56.5 15.5t43.5 41.5t27.5 60t9.5 70z" />
    <glyph glyph-name="s" unicode="s" horiz-adv-x="550" 
d="M493 398h-179q26 -9 49.5 -32.5t41.5 -55t28.5 -67t10.5 -67.5q0 -40 -18 -74t-48 -58.5t-70 -39t-85 -14.5q-97 0 -161 83q-60 78 -60 176q0 44 20.5 85t62.5 74q78 61 168 61h240v-71zM368 184q-2 21 -7 45t-13.5 48t-20 46t-25.5 39t-31.5 27t-36.5 10q-76 0 -109 -44
t-33 -130q0 -34 10.5 -65t28.5 -63q12 -21 24 -35t25 -22t27 -11.5t30 -3.5q29 0 52.5 13t41 35t27.5 51t10 60z" />
    <glyph glyph-name="t" unicode="t" horiz-adv-x="421" 
d="M354 380h-129q-2 -30 -5 -61.5t-5.5 -61t-4 -56t-1.5 -46.5q0 -17 3.5 -33t11 -28.5t18 -20t24.5 -7.5q40 0 53 79h16q0 -154 -97 -154q-20 0 -36 10.5t-27.5 29t-17.5 43t-6 52.5q0 97 19 253h-83q-38 0 -71 -86h-16v2q0 28 11.5 55t34.5 55q24 29 49 44t53 15h212z" />
    <glyph glyph-name="u" unicode="u" horiz-adv-x="566" 
d="M480 228q0 -55 -14.5 -100t-41 -76.5t-64 -48.5t-84.5 -17q-109 0 -140 106q-13 46 -15 198q-1 106 -38 106q-38 0 -61 -65h-20q10 34 17.5 56.5t14.5 33.5q29 47 76 47q70 0 83 -115q1 -26 2 -51.5t1.5 -51t1 -52t1.5 -56.5q7 -59 31.5 -89t61.5 -30q26 0 47.5 18
t36.5 49.5t23 74.5t8 95q0 76 -10 110q-16 51 -66 85l5 16q38 -15 65.5 -36t45 -50.5t25.5 -68t8 -88.5z" />
    <glyph glyph-name="v" unicode="v" 
d="M-267 652q-5 -7 -9 -10.5t-8 -3.5q-7 0 -7 7q0 3 1.5 8t4.5 12l68 155q4 9 12.5 14.5t18.5 5.5q15 0 22 -9.5t7 -19.5t-6 -18z" />
    <glyph glyph-name="w" unicode="w" horiz-adv-x="654" 
d="M577 187q0 -37 -10 -70t-32 -64q-23 -33 -53 -49.5t-65 -16.5q-76 0 -126 91q-11 -20 -25 -36.5t-30 -28.5t-34.5 -18.5t-38.5 -6.5q-35 0 -65 16.5t-54 49.5q-21 30 -31.5 63.5t-10.5 70.5q0 68 10 116.5t33.5 81t61.5 52.5t94 30v-16q-31 -12 -51.5 -26.5t-33 -38
t-17.5 -58t-5 -83.5q0 -218 84 -218q71 0 92 113q-13 29 -19 62t-6 70q0 109 46 109q47 0 47 -110q0 -21 -6 -52.5t-19 -77.5q3 -25 11 -45.5t19 -36t26 -24t32 -8.5q84 0 84 205q0 45 -3 77t-10 53q-21 65 -87 90v15q50 -7 86 -27t59.5 -54.5t35 -84t11.5 -115.5z" />
    <glyph glyph-name="x" unicode="x" horiz-adv-x="379" 
d="M379 -36q0 -29 -10.5 -56.5t-28.5 -49t-42 -34.5t-51 -13q-15 0 -28 3t-23 9t-15.5 14t-5.5 18q0 9 5 16.5t12.5 12.5t17.5 7.5t20 2.5q5 0 12.5 -1t14.5 -2.5l14 -3t11 -1.5q55 0 55 46q0 31 -23.5 48.5t-67.5 17.5q-7 0 -16 -1t-19.5 -2.5t-21.5 -3t-21 -1.5h-3
q-35 0 -64.5 13t-50.5 36.5t-32.5 55t-11.5 68.5q0 29 6 54t18.5 48t32.5 45t48 45q-45 53 -45 91q0 54 31 79q-59 14 -59 63q0 12 6.5 23.5t16.5 20.5t22 14.5t23 5.5q18 0 18 -8q0 -3 -6.5 -8.5t-14.5 -12t-14.5 -14t-6.5 -15.5t3.5 -15t10 -12t14 -8.5t16.5 -3.5
q64 69 124 69q36 0 36 -28q0 -14 -12 -27.5t-31.5 -23.5t-45 -16t-51.5 -7q-50 -30 -50 -86q0 -24 47 -63q58 37 125 37q61 0 61 -33q0 -10 -8.5 -18.5t-23 -14.5t-34 -9t-40.5 -3q-18 0 -35.5 2t-34.5 8q-109 -58 -109 -154q0 -90 87 -106q40 -4 80 -7t81 -7
q87 -16 87 -104z" />
    <glyph glyph-name="y" unicode="y" horiz-adv-x="657" 
d="M649 441q-37 -7 -58 -39t-26 -85q-8 -89 -14 -138.5t-9 -59.5q-11 -28 -27.5 -48.5t-39.5 -35.5t-52 -25t-65 -19v-172h-60v172q-36 9 -65.5 19.5t-52.5 25.5t-39.5 36t-27.5 50q-4 11 -10.5 61t-14.5 140q-5 52 -25.5 82.5t-56.5 35.5v18q13 6 31 8t49 2q35 0 58 -30.5
t31 -87.5q8 -54 14 -107.5t12 -107.5q6 -30 14.5 -49.5t21 -32t28 -18t34.5 -7.5v440h57v-441q21 5 37.5 13t29.5 21.5t21.5 34t13.5 50.5l21 210q10 55 34.5 83.5t64.5 28.5q24 0 41 -2.5t30 -8.5v-17v0z" />
    <glyph glyph-name="z" unicode="z" horiz-adv-x="356" 
d="M361 -44q0 -32 -10.5 -58t-29 -45t-44.5 -29.5t-58 -10.5q-13 0 -26.5 3t-24 9t-17 14.5t-6.5 19.5q0 18 13.5 30t32.5 12q6 0 17 -2.5t23 -5.5t22.5 -5.5t16.5 -2.5q12 0 22 4.5t17 12t11 18t4 22.5q0 11 -4.5 22t-11.5 20t-16.5 14t-20.5 5q-19 0 -27 -0.5t-11.5 -1.5
t-5.5 -2t-8.5 -2t-20.5 -1.5t-43 -0.5q-25 0 -50.5 15t-46.5 41.5t-34.5 62.5t-13.5 79q0 173 114 323q-24 8 -39.5 15t-24.5 14.5t-12 16.5t-3 21q0 17 8 32t21.5 26t31 17.5t35.5 6.5l2 -16q-46 -19 -46 -54q0 -40 49 -54q24 23 43 45t37 35q22 15 41.5 18.5t32.5 3.5
q33 0 33 -28q0 -20 -12 -36t-43 -29q-23 -9 -50 -17t-50 -18q-25 -11 -48 -44.5t-43 -86.5q-18 -48 -27 -87.5t-9 -72.5q0 -93 44 -120l16.5 -11t18 -9t25.5 -6.5t40 -2.5q10 0 23 0.5t35 2.5q24 0 44 -9.5t34 -25.5t22 -38.5t8 -48.5z" />
    <glyph glyph-name="braceleft" unicode="{" 
d="M-422 751q0 16 5.5 31t15.5 27.5t24.5 20.5t31.5 8h2q22 0 37.5 -12t16.5 -39v-2q0 -20 -13.5 -31.5t-33.5 -11.5t-36 9q-10 -13 -10 -26q0 -24 11.5 -41t38.5 -28q37 -13 41 -13h1q0 -4 -21 -4q-24 0 -44.5 8t-35 22.5t-23 35t-8.5 45.5v1zM-216 652q-5 -7 -9 -10.5
t-8 -3.5q-7 0 -7 7q0 3 1.5 8t4.5 12l68 155q4 9 12.5 14.5t18.5 5.5q15 0 22 -9.5t7 -19.5t-6 -18z" />
    <glyph glyph-name="bar" unicode="|" 
d="M-427 700q0 16 5.5 31t15.5 27.5t24.5 20.5t31.5 8h2q22 0 37.5 -12t16.5 -39v-2q0 -20 -13.5 -31.5t-33.5 -11.5t-36 9q-10 -13 -10 -26q0 -24 11.5 -41t38.5 -28q37 -13 41 -13h1q0 -4 -21 -4q-24 0 -44.5 8t-35 22.5t-23 35t-8.5 45.5v1zM-185 791q0 -9 -4 -9
q-20 18 -37 33t-34.5 25.5t-37 16.5t-42.5 6q-40 0 -75 -20t-68 -62q-2 0 -3 4t-2 9q0 25 12 46.5t32.5 37t47 25t56.5 9.5t58 -10t49.5 -26t34.5 -38t13 -47z" />
    <glyph glyph-name="braceright" unicode="}" 
d="M-477 751q0 16 5.5 31t15.5 27.5t24.5 20.5t31.5 8h2q22 0 37.5 -12t16.5 -39v-2q0 -20 -13.5 -31.5t-33.5 -11.5t-36 9q-10 -13 -10 -26q0 -24 11.5 -41t38.5 -28q37 -13 41 -13h1q0 -4 -21 -4q-24 0 -44.5 8t-35 22.5t-23 35t-8.5 45.5v1zM-252 792q-6 9 -6 19
q0 4 1.5 9t5.5 9t9.5 7t13.5 3q10 0 18 -4.5t12 -13.5l68 -157q6 -15 6 -20q0 -3 -2 -5t-4 -2q-4 0 -9 4.5t-9 9.5l-104 141v0z" />
    <glyph glyph-name="asciitilde" unicode="~" horiz-adv-x="271" 
d="M144 378q0 -10 -4.5 -19t-11.5 -15.5t-17 -10.5t-20 -4t-19 4t-16 11t-11.5 16t-4.5 18q0 24 15 39.5t37 15.5q11 0 20.5 -4t16.5 -11.5t11 -17.5t4 -22zM146 9q0 -24 -8.5 -45t-24 -38t-37 -29t-48.5 -18v11q15 4 30.5 13.5t27.5 22.5t19.5 29t7.5 32q0 11 -3 20
q-16 -15 -33 -15q-9 0 -18 4t-15 10t-10 14.5t-4 17.5t4 17t10 14.5t15 10.5t18 4q69 0 69 -75z" />
    <glyph glyph-name="aring" unicode="&#xe5;" horiz-adv-x="658" 
d="M570 82q0 -12 -3 -27.5t-9 -29.5t-16 -24t-24 -10q-6 0 -8.5 5t-3.5 11.5t-1.5 13t-1.5 10.5q-3 12 -12.5 26t-22 27.5t-26 26t-22.5 21.5q-69 67 -137.5 133t-137.5 132q-18 -17 -33.5 -38t-15.5 -47t8 -44t20.5 -31.5t27 -25.5t27 -28t20.5 -38t8 -56
q0 -45 -15.5 -64.5t-57.5 -19.5h-104q-6 0 -13 2t-7 10q0 9 10 12.5t22 9t22 16t10 32.5q0 24 -8 37.5t-18 25t-18 26t-8 40.5q0 24 11 51t28 53t36.5 49t36.5 40q-19 15 -38 32t-34.5 36t-25 41t-9.5 47q0 21 4.5 41t12 35.5t17 25.5t20.5 10q6 0 10 -7t8 -17.5t8.5 -23.5
t10.5 -25q10 -18 37 -47.5t61 -61.5t70 -62.5t64 -49.5q5 6 16 18.5t22 26.5t19.5 27.5t8.5 20.5q0 15 -9 25t-20 19.5t-20 20.5t-9 27q0 10 6 28.5t15.5 36.5t20 31.5t19.5 13.5q4 0 8.5 -4.5t9 -11t9.5 -13.5t10 -13q14 -16 33 -30.5t36 -30.5t29 -35t12 -44
q0 -9 -6 -25.5t-15 -33.5t-19.5 -29.5t-20.5 -12.5q-3 0 -8.5 9t-13.5 19.5t-18.5 19.5t-23.5 9q-8 0 -20.5 -11t-24.5 -25.5t-21 -27.5t-11 -18q6 -5 12 -11t13 -11q30 -26 62.5 -55.5t58.5 -62.5t43 -70t17 -78z" />
    <glyph glyph-name="ccedilla" unicode="&#xe7;" horiz-adv-x="249" 
d="M180 168q0 -11 -4.5 -21t-12 -17.5t-17.5 -12t-21 -4.5q-12 0 -22 4.5t-17.5 12t-12 17.5t-4.5 21q0 12 4.5 22t12 17.5t17.5 12t22 4.5q11 0 21 -4.5t17.5 -12t12 -17.5t4.5 -22zM180 388q0 -12 -4.5 -22t-12 -17.5t-17.5 -12t-21 -4.5q-12 0 -22 4.5t-17.5 12t-12 17.5
t-4.5 22q0 11 4.5 21t12 17.5t17.5 12t22 4.5q11 0 21 -4.5t17.5 -12t12 -17.5t4.5 -21z" />
    <glyph glyph-name="icircumflex" unicode="&#xee;" horiz-adv-x="335" 
d="M274 98q-6 -30 -14.5 -51t-20 -34t-27.5 -18.5t-37 -5.5q-47 0 -72 31t-25 93v167q0 62 -17.5 92t-58.5 30v19q2 0 4 0.5t5 1.5q28 8 44 13t32.5 10.5l30 10t24 8.5t14.5 5h1v-352q0 -15 3.5 -30.5t10 -27.5t15 -19.5t18.5 -7.5q43 0 53 65h17v0zM251 -164l-81 81
l-80 -81h-35l115 120l120 -120h-39z" />
    <glyph glyph-name="ntilde" unicode="&#xf1;" horiz-adv-x="498" 
d="M434 413q0 -22 -20 -72t-60 -131q-49 -99 -75 -149.5t-29 -60.5h-35q-11 29 -23 64t-25 71.5t-27 74t-27.5 72t-27 65.5t-26.5 55q-5 10 -12 15t-15 7.5t-16 3.5t-16 1l1 17q71 1 115 29l143 -371q47 88 71 141.5t24 74.5q0 7 -2.5 20.5t-5.5 29t-5.5 29.5t-2.5 20
q0 21 12.5 35t33.5 14q11 0 20 -4.5t16 -11.5t10.5 -17t3.5 -22zM287 -101q0 -10 -4.5 -19.5t-11.5 -17t-17 -12t-20 -4.5q-11 0 -20.5 4.5t-16.5 12t-11.5 17t-4.5 19.5t4.5 20t11.5 17t16.5 11.5t20.5 4.5q10 0 20 -4.5t17 -11.5t11.5 -17t4.5 -20z" />
    <glyph glyph-name="udieresis" unicode="&#xfc;" horiz-adv-x="501" 
d="M480 228q0 -55 -14.5 -100t-41 -76.5t-64 -48.5t-84.5 -17q-109 0 -140 106q-13 46 -15 198q-1 106 -38 106q-38 0 -61 -65h-20q10 34 17.5 56.5t14.5 33.5q29 47 76 47q70 0 83 -115q1 -26 2 -51.5t1.5 -51t1 -52t1.5 -56.5q7 -59 31.5 -89t61.5 -30q26 0 47.5 18
t36.5 49.5t23 74.5t8 95q0 76 -10 110q-16 51 -66 85l5 16q38 -15 65.5 -36t45 -50.5t25.5 -68t8 -88.5zM366 -160l-81 81l-80 -81h-35l115 120l120 -120h-39z" />
    <glyph glyph-name="cent" unicode="&#xa2;" horiz-adv-x="689" 
d="M50 351q77 28 141 76t116 118q0 -24 -5.5 -49.5t-15.5 -49.5t-24.5 -45.5t-32.5 -37.5h419v-24h-420q38 -34 58.5 -81.5t20.5 -100.5q-101 137 -257 194z" />
    <glyph glyph-name="sterling" unicode="&#xa3;" horiz-adv-x="676" 
d="M636 351q-79 -29 -142.5 -77t-113.5 -117q0 47 18.5 91t58.5 92h-419v23h419q-18 16 -32 37t-24 45t-15.5 49.5t-5.5 50.5q103 -138 256 -194z" />
    <glyph glyph-name="section" unicode="&#xa7;" horiz-adv-x="689" 
d="M39 470q100 36 172.5 84t116.5 108q0 -29 -4.5 -50t-10.5 -39.5t-11.5 -38.5t-7.5 -46h323q8 0 14.5 -3t11.5 -8t8 -12t3 -14v-259h-37v238q0 21 -20 21h-303q2 -27 7.5 -46t11.5 -36.5t10.5 -38t4.5 -49.5q-80 113 -289 189z" />
    <glyph glyph-name="bullet" unicode="&#x2022;" horiz-adv-x="308" 
d="M45 -38v39h160v280h40v-319h-200z" />
    <glyph glyph-name="paragraph" unicode="&#xb6;" horiz-adv-x="308" 
d="M45 281h40v-280h160v-39h-200v319z" />
    <glyph glyph-name="germandbls" unicode="&#xdf;" horiz-adv-x="411" 
d="M373 -49q0 -33 -12 -58.5t-33.5 -43.5t-52 -27.5t-67.5 -9.5q-58 0 -58 38q0 36 63 36q5 0 14.5 -2t20 -5t19.5 -5t14 -2q11 0 21 6t17 16t11.5 22t4.5 23q0 15 -6 27t-16.5 19.5t-25 11.5t-30.5 4q-5 0 -19.5 -1t-32 -2t-34 -2t-25.5 -1q-30 0 -55 17t-43.5 45.5
t-28.5 65t-10 74.5q0 64 17.5 115.5t50 87.5t78.5 55.5t102 19.5q102 0 102 -49q0 -37 -59 -37q-8 0 -23.5 1.5t-32.5 3t-33 3t-24 1.5q-31 0 -57 -15.5t-45 -41.5t-29.5 -59t-10.5 -68q0 -37 9 -62.5t29 -41.5t52.5 -23.5t80.5 -7.5h62q20 0 37.5 -10t30.5 -28t20 -41
t7 -49z" />
    <glyph glyph-name="registered" unicode="&#xae;" horiz-adv-x="418" 
d="M401 245q-1 -47 -13.5 -89.5t-40.5 -82.5q-60 -86 -148 -86q-41 0 -73 14t-51 41q-2 -10 -2.5 -20.5t-0.5 -20.5v-108q0 -20 -2 -39.5t-7 -36.5h-61q0 10 1.5 21.5t3 22.5t3 21t1.5 17v381q0 32 15.5 66t40.5 62.5t57 46.5t64 18q50 0 89 -16t67 -46t42.5 -72t14.5 -94z
M325 214q0 44 -12 82t-34 66t-52.5 43.5t-68.5 15.5q-17 0 -32 -10t-26 -24t-17.5 -30t-6.5 -29v-224q0 -16 10.5 -29.5t26.5 -24.5t35.5 -17t39.5 -6q31 0 56.5 15.5t43.5 41.5t27.5 60t9.5 70zM269 -104q0 -12 -4.5 -22t-12.5 -18t-18 -12.5t-22 -4.5t-22 4.5t-17.5 12.5
t-12 18t-4.5 22t4.5 22.5t12 18t17.5 12t22 4.5t22 -4.5t18 -12t12.5 -18t4.5 -22.5zM241 -105q0 29 -28 29t-28 -29q0 -28 28 -28t28 28z" />
    <glyph glyph-name="copyright" unicode="&#xa9;" horiz-adv-x="596" 
d="M551 644h-332l-51 -266h275l-18 -57h-275l-80 -496h-66l160 868h398z" />
    <glyph glyph-name="trademark" unicode="&#x2122;" horiz-adv-x="278" 
d="M215 401v-333l-167 167z" />
    <glyph glyph-name="AE" unicode="&#xc6;" 
d="M-198 650q0 -9 -4 -9q-20 18 -37 33t-34.5 25.5t-37 16.5t-42.5 6q-40 0 -75 -20t-68 -62q-2 0 -3 4t-2 9q0 25 12 46.5t32.5 37t47 25t56.5 9.5t58 -10t49.5 -26t34.5 -38t13 -47z" />
    <glyph glyph-name="infinity" unicode="&#x221e;" horiz-adv-x="689" 
d="M654 470q-210 -77 -289 -189q0 35 5 59t11.5 42.5t12 34.5t5.5 34h-303q-20 0 -20 -21v-238h-37v259q0 7 3 14t8.5 12t12 8t13.5 3h323q0 21 -5.5 37.5t-12 35.5t-11.5 42.5t-5 58.5q90 -120 289 -192z" />
    <glyph glyph-name="mu" unicode="&#xb5;" horiz-adv-x="530" 
d="M469 97q0 -22 -8 -41.5t-22 -33.5t-33.5 -22.5t-41.5 -8.5q-18 0 -30.5 3t-21.5 12.5t-16 26.5t-14 45q-68 -87 -150 -87q-32 0 -80 42v-32q0 -9 4 -26.5t8 -36.5t8 -36.5t4 -26.5q0 -64 -37 -64q-35 0 -35 65q0 8 2.5 25.5t5.5 36.5t5.5 36t2.5 26v470h76v-321
q0 -20 5.5 -37.5t16.5 -31t27 -21t36 -7.5q14 0 28.5 5.5t27.5 15t24.5 22t19.5 27.5v348h76v-365q0 -13 3 -25t8.5 -21.5t13.5 -15.5t17 -6q43 0 52 60h18v0zM309 -100q0 -12 -4.5 -22t-12.5 -18t-18 -12.5t-22 -4.5t-22 4.5t-17.5 12.5t-12 18t-4.5 22t4.5 22.5t12 18
t17.5 12t22 4.5t22 -4.5t18 -12t12.5 -18t4.5 -22.5zM281 -101q0 29 -28 29t-28 -29q0 -28 28 -28t28 28z" />
    <glyph glyph-name="partialdiff" unicode="&#x2202;" 
d="M-154 694q0 -9 -3.5 -17t-9 -13.5t-13 -9t-16.5 -3.5q-17 0 -30 12.5t-13 30.5q0 9 3.5 16.5t9.5 13t13.5 9t16.5 3.5t16.5 -3.5t13 -9t9 -13t3.5 -16.5zM-359 694q0 -9 -3.5 -17t-9 -13.5t-13 -9t-16.5 -3.5t-16.5 3.5t-13 9t-9 13.5t-3.5 17t3.5 16.5t9 13t13 9
t16.5 3.5t16.5 -3.5t13 -9t9 -13t3.5 -16.5z" />
    <glyph glyph-name="ordfeminine" unicode="&#xaa;" horiz-adv-x="351" 
d="M150 711q-6 -3 -10 -11.5t-6 -27t-2.5 -51t-0.5 -84.5v-573q0 -12 1 -21t6 -15.5t15.5 -10.5t30.5 -6v802zM227 713v-803q2 0 5 -0.5t6 -0.5q18 0 45 2l4 -6v-26l-6 -5q-9 0 -26.5 -0.5t-40.5 -0.5q-22 0 -46.5 -0.5t-47.5 -0.5h-39.5h-26.5l-9 12q12 47 12 109v560
q0 151 -9 185l9 13h6h6h13h171h11q5 0 11 -1l6 -4v-33h-4h-50z" />
    <glyph glyph-name="ordmasculine" unicode="&#xba;" horiz-adv-x="339" 
d="M56 -97l4 6q15 -1 27 -1h20h11v804h-13q-19 1 -49 1l-4 5v28l6 4h42.5h29.5h121h25l9 -13q-9 -33 -9 -185v-561q0 -63 12 -108l-9 -13q-49 2 -97 2h-120l-6 5v26zM171 706q-6 2 -13 3v-798q18 3 28 9q10 7 13 17t3 25v573q0 48 0.5 79.5t-2 50.5t-9 28t-20.5 13z" />
    <glyph glyph-name="ae" unicode="&#xe6;" 
d="M-48 648q0 -9 -4 -9q-20 18 -37 33t-34.5 25.5t-37 16.5t-42.5 6q-40 0 -75 -20t-68 -62q-2 0 -3 4t-2 9q0 25 12 46.5t32.5 37t47 25t56.5 9.5t58 -10t49.5 -26t34.5 -38t13 -47z" />
    <glyph glyph-name="questiondown" unicode="&#xbf;" 
d="M-32 793q0 -11 -4 -11l-20.5 20.5t-21.5 20.5q-23 20 -50.5 30t-58.5 10q-46 0 -80 -21q-8 -6 -19 -16t-21 -20t-16 -17t-7 -7q-4 0 -6 13q0 26 12 47.5t32.5 37t47.5 24.5t57 9q29 0 56.5 -9t49.5 -25.5t35.5 -38.5t13.5 -47zM-41 688q0 -9 -3 -16.5t-9 -13.5
t-13.5 -9.5t-16.5 -3.5q-8 0 -16 3.5t-14 9.5t-9.5 13.5t-3.5 16.5t3.5 16.5t9.5 13t14 9t16 3.5q9 0 16.5 -3.5t13.5 -9t9 -13t3 -16.5zM-246 688q0 -9 -3.5 -16.5t-9 -13.5t-13 -9.5t-16.5 -3.5q-8 0 -16 3.5t-13.5 9.5t-9 13.5t-3.5 16.5t3.5 16.5t9 13t13.5 9t16 3.5
q9 0 16.5 -3.5t13 -9t9 -13t3.5 -16.5z" />
    <glyph glyph-name="exclamdown" unicode="&#xa1;" horiz-adv-x="278" 
d="M71 71v333l167 -166z" />
    <glyph glyph-name="logicalnot" unicode="&#xac;" horiz-adv-x="498" 
d="M460 147q0 -36 -6.5 -65t-19 -49t-30.5 -31t-42 -11q-25 0 -46.5 23t-39 67t-30 107.5t-19.5 144.5h-2l-156 -333h-66l195 442q-4 19 -8.5 37t-8.5 32.5t-7 25t-4 14.5q-25 58 -67 58q-59 0 -78 -86h-18q0 31 7 59t19 50t28.5 35t35.5 13q40 0 73 -39t53 -119
q18 -73 33 -146t31 -147q35 -157 94 -157q54 0 62 75h17v0zM284 -92q0 -10 -4.5 -19.5t-11.5 -17t-17 -12t-20 -4.5q-11 0 -20.5 4.5t-16.5 12t-11.5 17t-4.5 19.5t4.5 20t11.5 17t16.5 11.5t20.5 4.5q10 0 20 -4.5t17 -11.5t11.5 -17t4.5 -20z" />
    <glyph glyph-name="radical" unicode="&#x221a;" 
d="M-253 652q-5 -7 -9 -10.5t-8 -3.5q-7 0 -7 7q0 3 1.5 8t4.5 12l68 155q4 9 12.5 14.5t18.5 5.5q15 0 22 -9.5t7 -19.5t-6 -18z" />
    <glyph glyph-name="florin" unicode="&#x192;" horiz-adv-x="458" 
d="M490 614q0 -21 -12.5 -34.5t-32.5 -13.5q-7 0 -14.5 2.5t-13 7.5t-8.5 11.5t-3 14.5q0 3 2 8t4 10.5l4 11t2 8.5q0 11 -22 11q-50 0 -72 -99q-2 -11 -6.5 -46t-11.5 -95h126l-10 -31h-120q-6 -50 -11 -100.5t-12 -101.5q-24 -184 -73.5 -273t-121.5 -89q-16 0 -30 4.5
t-24.5 13t-17 20.5t-6.5 27q0 21 12.5 35t33.5 14q37 0 37 -34q0 -6 -2.5 -13t-5 -13t-5 -11t-2.5 -6q0 -13 17 -13q19 0 33.5 10t25 32t17.5 57.5t11 85.5q9 101 18.5 189t21.5 166h-112l10 31h107q37 265 184 265q17 0 32.5 -4.5t26.5 -13.5t17.5 -20t6.5 -24z" />
    <glyph glyph-name="guillemotleft" unicode="&#xab;" 
d="M-102 795q0 -9 -4 -9q-20 18 -37 33t-34.5 25.5t-37 16.5t-42.5 6q-40 0 -75 -20t-68 -62q-2 0 -3 4t-2 9q0 25 12 46.5t32.5 37t47 25t56.5 9.5t58 -10t49.5 -26t34.5 -38t13 -47zM-190 703q0 -23 -9.5 -43t-24.5 -35t-35 -23t-41 -8q-20 0 -20 4q3 0 13 2.5t28 10.5
q14 7 23.5 13t15.5 13.5t9 16t3 20.5q0 18 -11 32q-5 -2 -11 -4q-14 -5 -26 -5h-9q-14 2 -20 8l-8 8q-10 12 -10 29q0 12 4 21.5t12 16t18.5 10t21.5 3.5h2q15 0 28.5 -5t24 -16t16.5 -27.5t6 -38.5v-3z" />
    <glyph glyph-name="guillemotright" unicode="&#xbb;" 
d="M-104 796q0 -9 -4 -9q-20 18 -37 33t-34.5 25.5t-37 16.5t-42.5 6q-40 0 -75 -20t-68 -62q-2 0 -3 4t-2 9q0 25 12 46.5t32.5 37t47 25t56.5 9.5t58 -10t49.5 -26t34.5 -38t13 -47zM-346 707q0 16 5.5 31t15.5 27.5t24.5 20.5t31.5 8h2q22 0 37.5 -12t16.5 -39v-2
q0 -20 -13.5 -31.5t-33.5 -11.5t-36 9q-10 -13 -10 -26q0 -24 11.5 -41t38.5 -28q37 -13 41 -13h1q0 -4 -21 -4q-24 0 -44.5 8t-35 22.5t-23 35t-8.5 45.5v1z" />
    <glyph glyph-name="ellipsis" unicode="&#x2026;" 
d="M-302 792q-6 9 -6 19q0 4 1.5 9t5.5 9t9.5 7t13.5 3q10 0 18 -4.5t12 -13.5l68 -157q6 -15 6 -20q0 -3 -2 -5t-4 -2q-4 0 -9 4.5t-9 9.5l-104 141v0z" />
    <glyph glyph-name="quotedblleft" unicode="&#x201c;" 
d="M-206 750q0 -23 -9.5 -43t-24.5 -35t-35 -23t-41 -8q-20 0 -20 4q3 0 13 2.5t28 10.5q14 7 23.5 13t15.5 13.5t9 16t3 20.5q0 18 -11 32q-5 -2 -11 -4q-14 -5 -26 -5h-9q-14 2 -20 8l-8 8q-10 12 -10 29q0 12 4 21.5t12 16t18.5 10t21.5 3.5h2q15 0 28.5 -5t24 -16
t16.5 -27.5t6 -38.5v-3zM-141 652q-5 -7 -9 -10.5t-8 -3.5q-7 0 -7 7q0 3 1.5 8t4.5 12l68 155q4 9 12.5 14.5t18.5 5.5q15 0 22 -9.5t7 -19.5t-6 -18z" />
    <glyph glyph-name="quotedblright" unicode="&#x201d;" 
d="M-372 751q0 16 5.5 31t15.5 27.5t24.5 20.5t31.5 8h2q22 0 37.5 -12t16.5 -39v-2q0 -20 -13.5 -31.5t-33.5 -11.5t-36 9q-10 -13 -10 -26q0 -24 11.5 -41t38.5 -28q37 -13 41 -13h1q0 -4 -21 -4q-24 0 -44.5 8t-35 22.5t-23 35t-8.5 45.5v1zM-161 652q-5 -7 -9 -10.5
t-8 -3.5q-7 0 -7 7q0 3 1.5 8t4.5 12l68 155q4 9 12.5 14.5t18.5 5.5q15 0 22 -9.5t7 -19.5t-6 -18z" />
    <glyph glyph-name="quoteleft" unicode="&#x2018;" 
d="M-238 750q0 -23 -9.5 -43t-24.5 -35t-35 -23t-41 -8q-20 0 -20 4q3 0 13 2.5t28 10.5q14 7 23.5 13t15.5 13.5t9 16t3 20.5q0 18 -11 32q-5 -2 -11 -4q-14 -5 -26 -5h-9q-14 2 -20 8l-8 8q-10 12 -10 29q0 12 4 21.5t12 16t18.5 10t21.5 3.5h2q15 0 28.5 -5t24 -16
t16.5 -27.5t6 -38.5v-3zM-179 792q-6 9 -6 19q0 4 1.5 9t5.5 9t9.5 7t13.5 3q10 0 18 -4.5t12 -13.5l68 -157q6 -15 6 -20q0 -3 -2 -5t-4 -2q-4 0 -9 4.5t-9 9.5l-104 141v0z" />
    <glyph glyph-name="quoteright" unicode="&#x2019;" 
d="M-381 751q0 16 5.5 31t15.5 27.5t24.5 20.5t31.5 8h2q22 0 37.5 -12t16.5 -39v-2q0 -20 -13.5 -31.5t-33.5 -11.5t-36 9q-10 -13 -10 -26q0 -24 11.5 -41t38.5 -28q37 -13 41 -13h1q0 -4 -21 -4q-24 0 -44.5 8t-35 22.5t-23 35t-8.5 45.5v1zM-182 792q-6 9 -6 19
q0 4 1.5 9t5.5 9t9.5 7t13.5 3q10 0 18 -4.5t12 -13.5l68 -157q6 -15 6 -20q0 -3 -2 -5t-4 -2q-4 0 -9 4.5t-9 9.5l-104 141v0z" />
    <glyph glyph-name="divide" unicode="&#xf7;" 
d="M-137 -193q9 0 16.5 5t14.5 14l27 -28q-8 -11 -18.5 -21t-22 -17t-22 -11t-19.5 -4q-28 0 -39.5 19t-11.5 57v93h59v-84q0 -8 2.5 -15t11.5 -8h2z" />
    <glyph glyph-name="daggerdbl" unicode="&#x2021;" 
d="M-314 688q0 17 12.5 29.5t29.5 12.5t29 -12.5t12 -29.5t-12 -29t-29 -12t-29.5 12t-12.5 29zM-142 688q0 17 12.5 29.5t29.5 12.5t29 -12.5t12 -29.5t-12 -29t-29 -12t-29.5 12t-12.5 29z" />
    <glyph glyph-name="Edieresis" unicode="&#xcb;" horiz-adv-x="598" 
 />
    <glyph glyph-name="Icircumflex" unicode="&#xce;" 
d="M-35 703q0 -9 -3.5 -17t-9 -13.5t-13 -9t-16.5 -3.5q-17 0 -30 12.5t-13 30.5q0 9 3.5 16.5t9.5 13t13.5 9t16.5 3.5t16.5 -3.5t13 -9t9 -13t3.5 -16.5zM-240 703q0 -9 -3.5 -17t-9 -13.5t-13 -9t-16.5 -3.5t-16.5 3.5t-13 9t-9 13.5t-3.5 17t3.5 16.5t9 13t13 9
t16.5 3.5t16.5 -3.5t13 -9t9 -13t3.5 -16.5z" />
    <glyph glyph-name="Ocircumflex" unicode="&#xd4;" 
d="M-315 751q0 16 5.5 31t15.5 27.5t24.5 20.5t31.5 8h2q22 0 37.5 -12t16.5 -39v-2q0 -20 -13.5 -31.5t-33.5 -11.5t-36 9q-10 -13 -10 -26q0 -24 11.5 -41t38.5 -28q37 -13 41 -13h1q0 -4 -21 -4q-24 0 -44.5 8t-35 22.5t-23 35t-8.5 45.5v1z" />
    <glyph glyph-name="Ugrave" unicode="&#xd9;" horiz-adv-x="498" 
d="M284 -82q0 -10 -4.5 -19.5t-11.5 -17t-17 -12t-20 -4.5q-11 0 -20.5 4.5t-16.5 12t-11.5 17t-4.5 19.5t4.5 20t11.5 17t16.5 11.5t20.5 4.5q10 0 20 -4.5t17 -11.5t11.5 -17t4.5 -20z" />
    <glyph glyph-name="dotlessi" unicode="&#x131;" horiz-adv-x="530" 
d="M328 -144q0 -12 -4.5 -22t-12.5 -18t-18 -12.5t-22 -4.5t-22 4.5t-17.5 12.5t-12 18t-4.5 22t4.5 22.5t12 18t17.5 12t22 4.5t22 -4.5t18 -12t12.5 -18t4.5 -22.5zM300 -145q0 29 -28 29t-28 -29q0 -28 28 -28t28 28z" />
    <glyph glyph-name="circumflex" unicode="&#x2c6;" horiz-adv-x="335" 
d="M251 -164l-81 81l-80 -81h-35l115 120l120 -120h-39z" />
    <glyph glyph-name="tilde" unicode="&#x2dc;" horiz-adv-x="392" 
d="M326 499q0 -15 -4.5 -30t-12 -28.5t-18.5 -25.5t-23 -20q45 -21 45 -81q0 -20 -7.5 -40t-20.5 -38t-30.5 -34t-37.5 -27t-41.5 -17.5t-43.5 -6.5q-13 0 -30 3t-33 7.5t-30.5 10t-23.5 12.5q4 35 6 63.5t3 52.5h23q1 -11 2 -28t3 -40q12 -12 23 -20t23.5 -13t26.5 -7
t31 -2q25 0 45 6t34.5 18t22.5 28.5t8 36.5q0 24 -17 44.5t-52 33.5q-31 13 -63 23.5t-64 21.5q-69 33 -69 90q0 59 62 103q-43 29 -43 76q0 33 14 63.5t37.5 53t53.5 36t63 13.5q57 0 102 -27q-10 -58 -10 -112h-23l-3 64q-43 36 -91 36q-22 0 -40.5 -6.5t-31.5 -19
t-20.5 -29t-7.5 -35.5q0 -22 17 -40.5t51 -31.5l64 -22t63 -23q68 -32 68 -92zM277 469q0 23 -19 44t-58 35q-29 11 -59 19.5t-59 17.5q-32 -29 -32 -65q0 -20 20.5 -40t61.5 -36q30 -11 60 -20.5t60 -20.5q13 18 19 34.5t6 31.5z" />
    <glyph glyph-name="breve" unicode="&#x2d8;" 
d="M-244 646q0 -9 -3.5 -16.5t-9 -13.5t-13 -9.5t-16.5 -3.5q-18 0 -30.5 12.5t-12.5 30.5q0 9 3.5 16.5t9 13t13.5 9t17 3.5t16.5 -3.5t13 -9t9 -13t3.5 -16.5zM-51 646q0 -9 -3.5 -16.5t-9 -13.5t-13 -9.5t-16.5 -3.5t-16.5 3.5t-13 9.5t-9 13.5t-3.5 16.5t3.5 16.5t9 13
t13 9t16.5 3.5t16.5 -3.5t13 -9t9 -13t3.5 -16.5zM-324 867q-6 9 -6 19q0 4 1.5 9t5.5 9t9.5 7t13.5 3q10 0 18 -4.5t12 -13.5l68 -157q6 -15 6 -20q0 -3 -2 -5t-4 -2q-4 0 -9 4.5t-9 9.5l-104 141v0z" />
    <glyph glyph-name="Delta" unicode="&#x2206;" 
d="M-160 750q0 -23 -9.5 -43t-24.5 -35t-35 -23t-41 -8q-20 0 -20 4q3 0 13 2.5t28 10.5q14 7 23.5 13t15.5 13.5t9 16t3 20.5q0 18 -11 32q-5 -2 -11 -4q-14 -5 -26 -5h-9q-14 2 -20 8l-8 8q-10 12 -10 29q0 12 4 21.5t12 16t18.5 10t21.5 3.5h2q15 0 28.5 -5t24 -16
t16.5 -27.5t6 -38.5v-3z" />
    <glyph glyph-name="lozenge" unicode="&#x25ca;" 
d="M-333 652q-5 -7 -9 -10.5t-8 -3.5q-7 0 -7 7q0 3 1.5 8t4.5 12l68 155q4 9 12.5 14.5t18.5 5.5q15 0 22 -9.5t7 -19.5t-6 -18z" />
    <glyph glyph-name="hungarumlaut" unicode="&#x2dd;" 
d="M-451 792q-6 9 -6 19q0 4 1.5 9t5.5 9t9.5 7t13.5 3q10 0 18 -4.5t12 -13.5l68 -157q6 -15 6 -20q0 -3 -2 -5t-4 -2q-4 0 -9 4.5t-9 9.5l-104 141v0z" />
    <glyph glyph-name="Ccedilla" unicode="&#xc7;" 
d="M-202 650q0 -9 -4 -9q-20 18 -37 33t-34.5 25.5t-37 16.5t-42.5 6q-40 0 -75 -20t-68 -62q-2 0 -3 4t-2 9q0 25 12 46.5t32.5 37t47 25t56.5 9.5t58 -10t49.5 -26t34.5 -38t13 -47z" />
    <glyph glyph-name="macron" unicode="&#xaf;" 
d="M-25 656q0 -18 -12 -30.5t-30 -12.5q-9 0 -16.5 3.5t-13.5 9t-9.5 13.5t-3.5 17t3.5 16.5t9.5 13t13.5 9t16.5 3.5t16.5 -3.5t13.5 -9t9 -13t3 -16.5zM-229 656q0 -9 -3.5 -17t-9.5 -13.5t-13.5 -9t-15.5 -3.5q-18 0 -30 12.5t-12 30.5q0 9 3 16.5t9 13t13.5 9t16.5 3.5
q8 0 15.5 -3.5t13.5 -9t9.5 -13t3.5 -16.5zM-175 727q-5 -7 -9 -10.5t-8 -3.5q-7 0 -7 7q0 3 1.5 8t4.5 12l68 155q4 9 12.5 14.5t18.5 5.5q15 0 22 -9.5t7 -19.5t-6 -18z" />
    <glyph glyph-name="greaterequal" unicode="&#x2265;" 
d="M-305 -193q9 0 16.5 5t14.5 14l27 -28q-8 -11 -18.5 -21t-22 -17t-22 -11t-19.5 -4q-28 0 -39.5 19t-11.5 57v93h59v-84q0 -8 2.5 -15t11.5 -8h2z" />
    <glyph glyph-name="exclam" unicode="!" horiz-adv-x="381" 
d="M133 750q0 -23 -9.5 -43t-24.5 -35t-35 -23t-41 -8q-20 0 -20 4q3 0 13 2.5t28 10.5q14 7 23.5 13t15.5 13.5t9 16t3 20.5q0 18 -11 32q-5 -2 -11 -4q-14 -5 -26 -5h-9q-14 2 -20 8l-8 8q-10 12 -10 29q0 12 4 21.5t12 16t18.5 10t21.5 3.5h2q15 0 28.5 -5t24 -16
t16.5 -27.5t6 -38.5v-3zM201 652q-5 -7 -9 -10.5t-8 -3.5q-7 0 -7 7q0 3 1.5 8t4.5 12l68 155q4 9 12.5 14.5t18.5 5.5q15 0 22 -9.5t7 -19.5t-6 -18z" />
    <glyph glyph-name="dotaccent" unicode="&#x2d9;" 
d="M-289 750q0 -23 -9.5 -43t-24.5 -35t-35 -23t-41 -8q-20 0 -20 4q3 0 13 2.5t28 10.5q14 7 23.5 13t15.5 13.5t9 16t3 20.5q0 18 -11 32q-5 -2 -11 -4q-14 -5 -26 -5h-9q-14 2 -20 8l-8 8q-10 12 -10 29q0 12 4 21.5t12 16t18.5 10t21.5 3.5h2q15 0 28.5 -5t24 -16
t16.5 -27.5t6 -38.5v-3z" />
    <glyph glyph-name="Oacute" unicode="&#xd3;" 
d="M-431 751q0 16 5.5 31t15.5 27.5t24.5 20.5t31.5 8h2q22 0 37.5 -12t16.5 -39v-2q0 -20 -13.5 -31.5t-33.5 -11.5t-36 9q-10 -13 -10 -26q0 -24 11.5 -41t38.5 -28q37 -13 41 -13h1q0 -4 -21 -4q-24 0 -44.5 8t-35 22.5t-23 35t-8.5 45.5v1z" />
    <glyph glyph-name="quotesingle" unicode="'" horiz-adv-x="347" 
d="M282 -185q-112 94 -167 214t-55 267q0 278 222 459l19 -26q-77 -83 -116 -190.5t-39 -242.5q0 -146 39 -260.5t116 -199.5z" />
    <glyph glyph-name="quotedbl" unicode="&#x22;" horiz-adv-x="359" 
d="M60 -164q155 170 155 460q0 268 -155 433l19 26q222 -182 222 -459q0 -294 -222 -481l-19 21v0z" />
    <glyph glyph-name="parenleft" unicode="(" horiz-adv-x="333" 
d="M279 -130q-47 2 -96 2q-48 0 -98 -2l-9 13q12 47 12 108v561q0 151 -9 185l9 13h49h49h49h47l6 -5v-27l-4 -5q-28 0 -44.5 -0.5t-23.5 -1.5q-47 -6 -50 -33q-2 -15 -3 -51t-1 -92v-528v-45q0 -16 1 -20q2 -10 8 -17t19 -11t35 -5.5t56 -1.5l4 -5v-26z" />
    <glyph glyph-name="parenright" unicode=")" horiz-adv-x="333" 
d="M79 -98l4 5q27 0 43.5 1t23.5 2q47 6 51 32q1 4 1 20v45v528q0 56 -1 92t-3 51q-2 11 -8 17.5t-19 10.5t-35 5.5t-56 1.5l-4 5v27l6 5h48h49h48h49l9 -13q-9 -34 -9 -185v-561q0 -62 12 -108l-9 -13q-49 2 -97 2q-49 0 -97 -2l-6 6v26z" />
    <glyph glyph-name="periodcentered" unicode="&#xb7;" horiz-adv-x="500" 
 />
    <glyph glyph-name="numbersign" unicode="#" horiz-adv-x="375" 
d="M318 715q0 -9 -4 -9q-20 18 -37 33t-34.5 25.5t-37 16.5t-42.5 6q-40 0 -75 -20t-68 -62q-2 0 -3 4t-2 9q0 25 12 46.5t32.5 37t47 25t56.5 9.5t58 -10t49.5 -26t34.5 -38t13 -47zM231 642q0 -23 -9.5 -43t-24.5 -35t-35 -23t-41 -8q-20 0 -20 4q3 0 13 2.5t28 10.5
q14 7 23.5 13t15.5 13.5t9 16t3 20.5q0 18 -11 32q-5 -2 -11 -4q-14 -5 -26 -5h-9q-14 2 -20 8l-8 8q-10 12 -10 29q0 12 4 21.5t12 16t18.5 10t21.5 3.5h2q15 0 28.5 -5t24 -16t16.5 -27.5t6 -38.5v-3z" />
    <glyph glyph-name="dollar" unicode="$" horiz-adv-x="386" 
d="M-1 751q0 16 5.5 31t15.5 27.5t24.5 20.5t31.5 8h2q22 0 37.5 -12t16.5 -39v-2q0 -20 -13.5 -31.5t-33.5 -11.5t-36 9q-10 -13 -10 -26q0 -24 11.5 -41t38.5 -28q37 -13 41 -13h1q0 -4 -21 -4q-24 0 -44.5 8t-35 22.5t-23 35t-8.5 45.5v1zM207 652q-5 -7 -9 -10.5
t-8 -3.5q-7 0 -7 7q0 3 1.5 8t4.5 12l68 155q4 9 12.5 14.5t18.5 5.5q15 0 22 -9.5t7 -19.5t-6 -18z" />
    <glyph glyph-name="caron" unicode="&#x2c7;" horiz-adv-x="249" 
d="M180 168q0 -11 -4.5 -21t-12 -17.5t-17.5 -12t-21 -4.5q-12 0 -22 4.5t-17.5 12t-12 17.5t-4.5 21q0 12 4.5 22t12 17.5t17.5 12t22 4.5q11 0 21 -4.5t17.5 -12t12 -17.5t4.5 -22zM180 388q0 -12 -4.5 -22t-12 -17.5t-17.5 -12t-21 -4.5q-12 0 -22 4.5t-17.5 12t-12 17.5
t-4.5 22q0 11 4.5 21t12 17.5t17.5 12t22 4.5q11 0 21 -4.5t17.5 -12t12 -17.5t4.5 -21z" />
    <glyph glyph-name="percent" unicode="%" horiz-adv-x="390" 
d="M-1 751q0 16 5.5 31t15.5 27.5t24.5 20.5t31.5 8h2q22 0 37.5 -12t16.5 -39v-2q0 -20 -13.5 -31.5t-33.5 -11.5t-36 9q-10 -13 -10 -26q0 -24 11.5 -41t38.5 -28q37 -13 41 -13h1q0 -4 -21 -4q-24 0 -44.5 8t-35 22.5t-23 35t-8.5 45.5v1zM193 792q-6 9 -6 19q0 4 1.5 9
t5.5 9t9.5 7t13.5 3q10 0 18 -4.5t12 -13.5l68 -157q6 -15 6 -20q0 -3 -2 -5t-4 -2q-4 0 -9 4.5t-9 9.5l-104 141v0z" />
    <glyph glyph-name="ampersand" unicode="&#x26;" 
d="M-120 694q0 -9 -3.5 -17t-9 -13.5t-13 -9t-16.5 -3.5q-17 0 -30 12.5t-13 30.5q0 9 3.5 16.5t9.5 13t13.5 9t16.5 3.5t16.5 -3.5t13 -9t9 -13t3.5 -16.5zM-325 694q0 -9 -3.5 -17t-9 -13.5t-13 -9t-16.5 -3.5t-16.5 3.5t-13 9t-9 13.5t-3.5 17t3.5 16.5t9 13t13 9
t16.5 3.5t16.5 -3.5t13 -9t9 -13t3.5 -16.5z" />
    <glyph glyph-name="asterisk" unicode="*" horiz-adv-x="447" 
d="M187 672q-124 58 -128 67v1q0 5 5 13.5t12 17t14 15t11 6.5q8 0 100 -92q8 49 13 76.5t8 41.5t4.5 17.5t2.5 3.5q1 1 3 1q5 0 14.5 -2.5t20 -5.5t18 -7t8.5 -7v-4q0 -5 -63 -124q58 11 91 16t43 5q2 0 3.5 -1.5t2.5 -6t2 -13.5t1 -25q0 -17 -3 -19h-1q-7 0 -42 4t-98 12
q33 -58 50 -89t17 -34v-1q-1 -2 -10 -6.5t-20.5 -8.5t-22 -7.5t-14.5 -3.5h-1q-5 4 -24 137q-43 -36 -64.5 -54.5t-23.5 -20.5q-15 -11 -19 -11v0q-3 0 -9 6.5t-12.5 14.5t-11.5 15.5t-5 11.5v1q1 2 5 5.5t12 7.5q28 11 55.5 23t55.5 24z" />
    <glyph glyph-name="plus" unicode="+" horiz-adv-x="193" 
d="M2 751q0 16 5.5 31t15.5 27.5t24.5 20.5t31.5 8h2q22 0 37.5 -12t16.5 -39v-2q0 -20 -13.5 -31.5t-33.5 -11.5t-36 9q-10 -13 -10 -26q0 -24 11.5 -41t38.5 -28q37 -13 41 -13h1q0 -4 -21 -4q-24 0 -44.5 8t-35 22.5t-23 35t-8.5 45.5v1z" />
    <glyph glyph-name="fraction" unicode="&#xe1;" 
d="M-362 750q0 -23 -9.5 -43t-24.5 -35t-35 -23t-41 -8q-20 0 -20 4q3 0 13 2.5t28 10.5q14 7 23.5 13t15.5 13.5t9 16t3 20.5q0 18 -11 32q-5 -2 -11 -4q-14 -5 -26 -5h-9q-14 2 -20 8l-8 8q-10 12 -10 29q0 12 4 21.5t12 16t18.5 10t21.5 3.5h2q15 0 28.5 -5t24 -16
t16.5 -27.5t6 -38.5v-3zM-274 651q-5 -7 -9 -10.5t-8 -3.5q-7 0 -7 7q0 3 1.5 8t4.5 12l68 155q4 9 12.5 14.5t18.5 5.5q15 0 22 -9.5t7 -19.5t-6 -18z" />
    <glyph glyph-name="guilsinglleft" unicode="&#xe2;" 
d="M-285 699q0 -23 -9.5 -43t-24.5 -35t-35 -23t-41 -8q-20 0 -20 4q3 0 13 2.5t28 10.5q14 7 23.5 13t15.5 13.5t9 16t3 20.5q0 18 -11 32q-5 -2 -11 -4q-14 -5 -26 -5h-9q-14 2 -20 8l-8 8q-10 12 -10 29q0 12 4 21.5t12 16t18.5 10t21.5 3.5h2q15 0 28.5 -5t24 -16
t16.5 -27.5t6 -38.5v-3zM-196 796q0 -9 -4 -9q-20 18 -37 33t-34.5 25.5t-37 16.5t-42.5 6q-40 0 -75 -20t-68 -62q-2 0 -3 4t-2 9q0 25 12 46.5t32.5 37t47 25t56.5 9.5t58 -10t49.5 -26t34.5 -38t13 -47z" />
    <glyph glyph-name="guilsinglright" unicode="&#xe9;" 
d="M-504 751q0 16 5.5 31t15.5 27.5t24.5 20.5t31.5 8h2q22 0 37.5 -12t16.5 -39v-2q0 -20 -13.5 -31.5t-33.5 -11.5t-36 9q-10 -13 -10 -26q0 -24 11.5 -41t38.5 -28q37 -13 41 -13h1q0 -4 -21 -4q-24 0 -44.5 8t-35 22.5t-23 35t-8.5 45.5v1zM-256 652q-5 -7 -9 -10.5
t-8 -3.5q-7 0 -7 7q0 3 1.5 8t4.5 12l68 155q4 9 12.5 14.5t18.5 5.5q15 0 22 -9.5t7 -19.5t-6 -18z" />
    <glyph glyph-name="fi" unicode="&#xe8;" 
d="M-559 751q0 16 5.5 31t15.5 27.5t24.5 20.5t31.5 8h2q22 0 37.5 -12t16.5 -39v-2q0 -20 -13.5 -31.5t-33.5 -11.5t-36 9q-10 -13 -10 -26q0 -24 11.5 -41t38.5 -28q37 -13 41 -13h1q0 -4 -21 -4q-24 0 -44.5 8t-35 22.5t-23 35t-8.5 45.5v1zM-369 792q-6 9 -6 19
q0 4 1.5 9t5.5 9t9.5 7t13.5 3q10 0 18 -4.5t12 -13.5l68 -157q6 -15 6 -20q0 -3 -2 -5t-4 -2q-4 0 -9 4.5t-9 9.5l-104 141v0z" />
    <glyph glyph-name="fl" unicode="&#xea;" 
d="M-472 705q0 16 5.5 31t15.5 27.5t24.5 20.5t31.5 8h2q22 0 37.5 -12t16.5 -39v-2q0 -20 -13.5 -31.5t-33.5 -11.5t-36 9q-10 -13 -10 -26q0 -24 11.5 -41t38.5 -28q37 -13 41 -13h1q0 -4 -21 -4q-24 0 -44.5 8t-35 22.5t-23 35t-8.5 45.5v1zM-235 795q0 -9 -4 -9
q-20 18 -37 33t-34.5 25.5t-37 16.5t-42.5 6q-40 0 -75 -20t-68 -62q-2 0 -3 4t-2 9q0 25 12 46.5t32.5 37t47 25t56.5 9.5t58 -10t49.5 -26t34.5 -38t13 -47z" />
    <glyph glyph-name="agrave" unicode="&#xe0;" 
d="M-416 750q0 -23 -9.5 -43t-24.5 -35t-35 -23t-41 -8q-20 0 -20 4q3 0 13 2.5t28 10.5q14 7 23.5 13t15.5 13.5t9 16t3 20.5q0 18 -11 32q-5 -2 -11 -4q-14 -5 -26 -5h-9q-14 2 -20 8l-8 8q-10 12 -10 29q0 12 4 21.5t12 16t18.5 10t21.5 3.5h2q15 0 28.5 -5t24 -16
t16.5 -27.5t6 -38.5v-3zM-350 792q-6 9 -6 19q0 4 1.5 9t5.5 9t9.5 7t13.5 3q10 0 18 -4.5t12 -13.5l68 -157q6 -15 6 -20q0 -3 -2 -5t-4 -2q-4 0 -9 4.5t-9 9.5l-104 141v0z" />
    <glyph glyph-name="adieresis" unicode="&#xe4;" horiz-adv-x="500" 
 />
    <glyph glyph-name="edieresis" unicode="&#xeb;" horiz-adv-x="500" 
 />
    <glyph glyph-name="iacute" unicode="&#xed;" horiz-adv-x="500" 
 />
    <glyph glyph-name="igrave" unicode="&#xec;" horiz-adv-x="500" 
 />
    <glyph glyph-name="oacute" unicode="&#xf3;" horiz-adv-x="500" 
 />
    <glyph glyph-name="odieresis" unicode="&#xf6;" horiz-adv-x="500" 
 />
    <glyph glyph-name="uacute" unicode="&#xfa;" horiz-adv-x="500" 
 />
    <glyph glyph-name="degree" unicode="&#xb0;" horiz-adv-x="500" 
 />
    <glyph glyph-name="acute" unicode="&#xb4;" horiz-adv-x="500" 
 />
    <glyph glyph-name="dieresis" unicode="&#xa8;" horiz-adv-x="500" 
 />
    <glyph glyph-name="notequal" unicode="&#x2260;" horiz-adv-x="500" 
 />
    <glyph glyph-name="Oslash" unicode="&#xd8;" horiz-adv-x="500" 
 />
    <glyph glyph-name="plusminus" unicode="&#xb1;" horiz-adv-x="500" 
 />
    <glyph glyph-name="lessequal" unicode="&#x2264;" horiz-adv-x="500" 
 />
    <glyph glyph-name="yen" unicode="&#xa5;" horiz-adv-x="500" 
 />
    <glyph glyph-name="summation" unicode="&#x2211;" horiz-adv-x="500" 
 />
    <glyph glyph-name="pi" unicode="&#x3c0;" horiz-adv-x="500" 
 />
    <glyph glyph-name="uni03A9" unicode="&#x3a9;" horiz-adv-x="500" 
 />
    <glyph glyph-name="oslash" unicode="&#xf8;" horiz-adv-x="500" 
 />
    <glyph glyph-name="approxequal" unicode="&#x2248;" horiz-adv-x="500" 
 />
    <glyph glyph-name="OE" unicode="&#x152;" horiz-adv-x="500" 
 />
    <glyph glyph-name="oe" unicode="&#x153;" horiz-adv-x="500" 
 />
    <glyph glyph-name="endash" unicode="&#x2013;" horiz-adv-x="500" 
 />
    <glyph glyph-name="emdash" unicode="&#x2014;" horiz-adv-x="500" 
 />
    <glyph glyph-name="glyph181" unicode="&#x2044;" 
d="M-371 750q0 -23 -9.5 -43t-24.5 -35t-35 -23t-41 -8q-20 0 -20 4q3 0 13 2.5t28 10.5q14 7 23.5 13t15.5 13.5t9 16t3 20.5q0 18 -11 32q-5 -2 -11 -4q-14 -5 -26 -5h-9q-14 2 -20 8l-8 8q-10 12 -10 29q0 12 4 21.5t12 16t18.5 10t21.5 3.5h2q15 0 28.5 -5t24 -16
t16.5 -27.5t6 -38.5v-3zM-285 652q-5 -7 -9 -10.5t-8 -3.5q-7 0 -7 7q0 3 1.5 8t4.5 12l68 155q4 9 12.5 14.5t18.5 5.5q15 0 22 -9.5t7 -19.5t-6 -18z" />
    <glyph glyph-name="Euro" unicode="&#x20ac;" 
d="M-388 750q0 -23 -9.5 -43t-24.5 -35t-35 -23t-41 -8q-20 0 -20 4q3 0 13 2.5t28 10.5q14 7 23.5 13t15.5 13.5t9 16t3 20.5q0 18 -11 32q-5 -2 -11 -4q-14 -5 -26 -5h-9q-14 2 -20 8l-8 8q-10 12 -10 29q0 12 4 21.5t12 16t18.5 10t21.5 3.5h2q15 0 28.5 -5t24 -16
t16.5 -27.5t6 -38.5v-3zM-319 792q-6 9 -6 19q0 4 1.5 9t5.5 9t9.5 7t13.5 3q10 0 18 -4.5t12 -13.5l68 -157q6 -15 6 -20q0 -3 -2 -5t-4 -2q-4 0 -9 4.5t-9 9.5l-104 141v0z" />
    <glyph glyph-name="glyph183" unicode="&#x2039;" 
d="M-284 699q0 -23 -9.5 -43t-24.5 -35t-35 -23t-41 -8q-20 0 -20 4q3 0 13 2.5t28 10.5q14 7 23.5 13t15.5 13.5t9 16t3 20.5q0 18 -11 32q-5 -2 -11 -4q-14 -5 -26 -5h-9q-14 2 -20 8l-8 8q-10 12 -10 29q0 12 4 21.5t12 16t18.5 10t21.5 3.5h2q15 0 28.5 -5t24 -16
t16.5 -27.5t6 -38.5v-3zM-205 796q0 -9 -4 -9q-20 18 -37 33t-34.5 25.5t-37 16.5t-42.5 6q-40 0 -75 -20t-68 -62q-2 0 -3 4t-2 9q0 25 12 46.5t32.5 37t47 25t56.5 9.5t58 -10t49.5 -26t34.5 -38t13 -47z" />
    <glyph glyph-name="glyph184" unicode="&#x203a;" 
d="M-277 652q-5 -7 -9 -10.5t-8 -3.5q-7 0 -7 7q0 3 1.5 8t4.5 12l68 155q4 9 12.5 14.5t18.5 5.5q15 0 22 -9.5t7 -19.5t-6 -18zM-533 753q0 16 5.5 31t15.5 27.5t24.5 20.5t31.5 8h2q22 0 37.5 -12t16.5 -39v-2q0 -20 -13.5 -31.5t-33.5 -11.5t-36 9q-10 -13 -10 -26
q0 -24 11.5 -41t38.5 -28q37 -13 41 -13h1q0 -4 -21 -4q-24 0 -44.5 8t-35 22.5t-23 35t-8.5 45.5v1z" />
    <glyph glyph-name="uniFB01" unicode="&#xfb01;" 
d="M-341 792q-6 9 -6 19q0 4 1.5 9t5.5 9t9.5 7t13.5 3q10 0 18 -4.5t12 -13.5l68 -157q6 -15 6 -20q0 -3 -2 -5t-4 -2q-4 0 -9 4.5t-9 9.5l-104 141v0zM-553 755q0 16 5.5 31t15.5 27.5t24.5 20.5t31.5 8h2q22 0 37.5 -12t16.5 -39v-2q0 -20 -13.5 -31.5t-33.5 -11.5t-36 9
q-10 -13 -10 -26q0 -24 11.5 -41t38.5 -28q37 -13 41 -13h1q0 -4 -21 -4q-24 0 -44.5 8t-35 22.5t-23 35t-8.5 45.5v1z" />
    <glyph glyph-name="uniFB02" unicode="&#xfb02;" 
d="M-206 795q0 -9 -4 -9q-20 18 -37 33t-34.5 25.5t-37 16.5t-42.5 6q-40 0 -75 -20t-68 -62q-2 0 -3 4t-2 9q0 25 12 46.5t32.5 37t47 25t56.5 9.5t58 -10t49.5 -26t34.5 -38t13 -47zM-433 707q0 16 5.5 31t15.5 27.5t24.5 20.5t31.5 8h2q22 0 37.5 -12t16.5 -39v-2
q0 -20 -13.5 -31.5t-33.5 -11.5t-36 9q-10 -13 -10 -26q0 -24 11.5 -41t38.5 -28q37 -13 41 -13h1q0 -4 -21 -4q-24 0 -44.5 8t-35 22.5t-23 35t-8.5 45.5v1z" />
    <glyph glyph-name="quotesinglbase" unicode="&#x201a;" horiz-adv-x="500" 
 />
    <glyph glyph-name="quotedblbase" unicode="&#x201e;" horiz-adv-x="500" 
 />
    <glyph glyph-name="perthousand" unicode="&#x2030;" horiz-adv-x="500" 
 />
    <glyph glyph-name="Aacute" unicode="&#xc1;" horiz-adv-x="500" 
 />
    <glyph glyph-name="uniF8FF" unicode="&#xf8ff;" horiz-adv-x="500" 
 />
    <glyph glyph-name="Uacute" unicode="&#xda;" horiz-adv-x="500" 
 />
    <glyph glyph-name="ring" unicode="&#x2da;" horiz-adv-x="500" 
 />
    <glyph glyph-name="cedilla" unicode="&#xb8;" horiz-adv-x="500" 
 />
    <glyph glyph-name="ogonek" unicode="&#x2db;" horiz-adv-x="500" 
 />
  </font>
</defs>
</svg>
